<svg width="80" height="61" viewBox="0 0 80 61" fill="none" xmlns="http://www.w3.org/2000/svg">
<g clip-path="url(#clip0_42_5853)">
<path d="M0 0.5H80V60.5H0V0.5Z" fill="#003399"/>
<path d="M39.9983 10.0468L39.1094 13.0097L40.5909 13.306L39.9983 10.0468Z" fill="#FFCC00"/>
<path d="M39.9978 10.0468L40.8867 13.0097L39.4052 13.306L39.9978 10.0468Z" fill="#FFCC00"/>
<path d="M42.8177 12.0942L39.725 12.1644L39.901 13.6649L42.8177 12.0942Z" fill="#FFCC00"/>
<path d="M42.8152 12.0942L40.2719 13.8552L39.5323 12.5378L42.8152 12.0942Z" fill="#FFCC00"/>
<path d="M41.7418 15.4068L40.7194 12.4872L39.3466 13.1183L41.7418 15.4068Z" fill="#FFCC00"/>
<path d="M41.7426 15.4068L39.2819 13.5322L40.3062 12.4217L41.7426 15.4068Z" fill="#FFCC00"/>
<path d="M37.1784 12.0942L40.2711 12.1644L40.0951 13.6649L37.1784 12.0942Z" fill="#FFCC00"/>
<path d="M37.1809 12.0942L39.7242 13.8552L40.4638 12.5378L37.1809 12.0942Z" fill="#FFCC00"/>
<path d="M38.2543 15.4068L39.2767 12.4872L40.6494 13.1183L38.2543 15.4068Z" fill="#FFCC00"/>
<path d="M38.2535 15.4068L40.7142 13.5322L39.6899 12.4217L38.2535 15.4068Z" fill="#FFCC00"/>
<path d="M39.9983 45.6023L39.1094 48.5653L40.5909 48.8616L39.9983 45.6023Z" fill="#FFCC00"/>
<path d="M39.9978 45.6023L40.8867 48.5653L39.4052 48.8616L39.9978 45.6023Z" fill="#FFCC00"/>
<path d="M42.8177 47.6496L39.725 47.7198L39.901 49.2203L42.8177 47.6496Z" fill="#FFCC00"/>
<path d="M42.8152 47.6496L40.2719 49.4106L39.5323 48.0932L42.8152 47.6496Z" fill="#FFCC00"/>
<path d="M41.7418 50.9622L40.7194 48.0426L39.3466 48.6737L41.7418 50.9622Z" fill="#FFCC00"/>
<path d="M41.7426 50.9623L39.2819 49.0877L40.3062 47.9772L41.7426 50.9623Z" fill="#FFCC00"/>
<path d="M37.1784 47.6496L40.2711 47.7198L40.0951 49.2203L37.1784 47.6496Z" fill="#FFCC00"/>
<path d="M37.1809 47.6496L39.7242 49.4106L40.4638 48.0932L37.1809 47.6496Z" fill="#FFCC00"/>
<path d="M38.2543 50.9622L39.2767 48.0426L40.6494 48.6737L38.2543 50.9622Z" fill="#FFCC00"/>
<path d="M38.2535 50.9623L40.7142 49.0877L39.6899 47.9772L38.2535 50.9623Z" fill="#FFCC00"/>
<path d="M22.2209 27.8245L21.332 30.7874L22.8135 31.0837L22.2209 27.8245Z" fill="#FFCC00"/>
<path d="M22.2205 27.8245L23.1094 30.7874L21.6279 31.0837L22.2205 27.8245Z" fill="#FFCC00"/>
<path d="M25.0403 29.8719L21.9477 29.9421L22.1237 31.4426L25.0403 29.8719Z" fill="#FFCC00"/>
<path d="M25.0378 29.8719L22.4946 31.6329L21.755 30.3155L25.0378 29.8719Z" fill="#FFCC00"/>
<path d="M23.9645 33.1846L22.942 30.265L21.5693 30.8961L23.9645 33.1846Z" fill="#FFCC00"/>
<path d="M23.9652 33.1846L21.5045 31.3099L22.5289 30.1994L23.9652 33.1846Z" fill="#FFCC00"/>
<path d="M19.4011 29.8719L22.4937 29.9421L22.3177 31.4426L19.4011 29.8719Z" fill="#FFCC00"/>
<path d="M19.4036 29.8719L21.9469 31.6329L22.6864 30.3155L19.4036 29.8719Z" fill="#FFCC00"/>
<path d="M20.4769 33.1846L21.4994 30.265L22.8721 30.8961L20.4769 33.1846Z" fill="#FFCC00"/>
<path d="M20.4762 33.1846L22.9369 31.3099L21.9125 30.1994L20.4762 33.1846Z" fill="#FFCC00"/>
<path d="M29.5856 17.9227L32.0463 16.0481L31.0219 14.9376L29.5856 17.9227Z" fill="#FFCC00"/>
<path d="M29.5863 17.9227L30.6088 15.0032L31.9815 15.6343L29.5863 17.9227Z" fill="#FFCC00"/>
<path d="M28.5091 14.6101L31.0523 16.3711L31.7919 15.0536L28.5091 14.6101Z" fill="#FFCC00"/>
<path d="M28.5105 14.61L31.6031 14.6803L31.4271 16.1808L28.5105 14.61Z" fill="#FFCC00"/>
<path d="M31.3303 12.5627L30.4414 15.5257L31.9229 15.822L31.3303 12.5627Z" fill="#FFCC00"/>
<path d="M31.3299 12.5627L32.2188 15.5257L30.7373 15.822L31.3299 12.5627Z" fill="#FFCC00"/>
<path d="M33.0707 17.9228L30.61 16.0482L31.6344 14.9377L33.0707 17.9228Z" fill="#FFCC00"/>
<path d="M33.0699 17.9229L32.0475 15.0033L30.6748 15.6344L33.0699 17.9229Z" fill="#FFCC00"/>
<path d="M34.1472 14.6101L31.6039 16.3711L30.8643 15.0536L34.1472 14.6101Z" fill="#FFCC00"/>
<path d="M34.1458 14.61L31.0531 14.6803L31.2292 16.1808L34.1458 14.61Z" fill="#FFCC00"/>
<path d="M26.4801 24.5137L25.4576 21.5941L24.0849 22.2252L26.4801 24.5137Z" fill="#FFCC00"/>
<path d="M26.4808 24.5138L24.0201 22.6392L25.0445 21.5287L26.4808 24.5138Z" fill="#FFCC00"/>
<path d="M22.9957 24.5138L25.4564 22.6392L24.432 21.5287L22.9957 24.5138Z" fill="#FFCC00"/>
<path d="M22.9965 24.5138L24.0189 21.5942L25.3916 22.2253L22.9965 24.5138Z" fill="#FFCC00"/>
<path d="M21.9192 21.201L24.4625 22.962L25.2021 21.6446L21.9192 21.201Z" fill="#FFCC00"/>
<path d="M21.9206 21.201L25.0133 21.2712L24.8372 22.7717L21.9206 21.201Z" fill="#FFCC00"/>
<path d="M27.5573 21.201L25.0141 22.962L24.2745 21.6446L27.5573 21.201Z" fill="#FFCC00"/>
<path d="M27.5559 21.201L24.4633 21.2712L24.6393 22.7717L27.5559 21.201Z" fill="#FFCC00"/>
<path d="M24.7361 19.1537L25.625 22.1166L24.1435 22.4129L24.7361 19.1537Z" fill="#FFCC00"/>
<path d="M24.7365 19.1537L23.8477 22.1166L25.3291 22.4129L24.7365 19.1537Z" fill="#FFCC00"/>
<path d="M27.5598 39.0215L24.4672 39.0918L24.6432 40.5923L27.5598 39.0215Z" fill="#FFCC00"/>
<path d="M27.5573 39.0216L25.0141 40.7825L24.2745 39.4651L27.5573 39.0216Z" fill="#FFCC00"/>
<path d="M26.484 42.3342L25.4615 39.4147L24.0888 40.0458L26.484 42.3342Z" fill="#FFCC00"/>
<path d="M26.4848 42.3342L24.024 40.4596L25.0484 39.3491L26.4848 42.3342Z" fill="#FFCC00"/>
<path d="M22.9996 42.3342L25.4603 40.4596L24.436 39.3491L22.9996 42.3342Z" fill="#FFCC00"/>
<path d="M23.0004 42.3342L24.0228 39.4147L25.3955 40.0458L23.0004 42.3342Z" fill="#FFCC00"/>
<path d="M24.7439 36.9741L25.6328 39.9371L24.1513 40.2334L24.7439 36.9741Z" fill="#FFCC00"/>
<path d="M24.7444 36.9741L23.8555 39.9371L25.3369 40.2334L24.7444 36.9741Z" fill="#FFCC00"/>
<path d="M21.9245 39.0215L25.0172 39.0918L24.8412 40.5923L21.9245 39.0215Z" fill="#FFCC00"/>
<path d="M21.927 39.0216L24.4703 40.7825L25.2099 39.4651L21.927 39.0216Z" fill="#FFCC00"/>
<path d="M33.9895 44.9853L30.8969 45.0555L31.0729 46.556L33.9895 44.9853Z" fill="#FFCC00"/>
<path d="M33.987 44.9853L31.4438 46.7463L30.7042 45.4289L33.987 44.9853Z" fill="#FFCC00"/>
<path d="M32.9137 48.298L31.8912 45.3784L30.5185 46.0095L32.9137 48.298Z" fill="#FFCC00"/>
<path d="M32.9144 48.298L30.4537 46.4233L31.4781 45.3128L32.9144 48.298Z" fill="#FFCC00"/>
<path d="M29.4293 48.298L31.89 46.4233L30.8656 45.3128L29.4293 48.298Z" fill="#FFCC00"/>
<path d="M29.4301 48.298L30.4525 45.3784L31.8252 46.0095L29.4301 48.298Z" fill="#FFCC00"/>
<path d="M31.1736 42.9379L32.0625 45.9008L30.581 46.1971L31.1736 42.9379Z" fill="#FFCC00"/>
<path d="M31.174 42.9379L30.2852 45.9008L31.7666 46.1971L31.174 42.9379Z" fill="#FFCC00"/>
<path d="M28.3542 44.9853L31.4469 45.0555L31.2708 46.556L28.3542 44.9853Z" fill="#FFCC00"/>
<path d="M28.3567 44.9853L30.9 46.7463L31.6396 45.4289L28.3567 44.9853Z" fill="#FFCC00"/>
<path d="M57.7791 27.8245L58.668 30.7874L57.1865 31.0837L57.7791 27.8245Z" fill="#FFCC00"/>
<path d="M57.7795 27.8245L56.8906 30.7874L58.3721 31.0837L57.7795 27.8245Z" fill="#FFCC00"/>
<path d="M54.9597 29.8719L58.0523 29.9421L57.8763 31.4426L54.9597 29.8719Z" fill="#FFCC00"/>
<path d="M54.9622 29.8719L57.5054 31.6329L58.245 30.3155L54.9622 29.8719Z" fill="#FFCC00"/>
<path d="M56.0355 33.1846L57.058 30.265L58.4307 30.8961L56.0355 33.1846Z" fill="#FFCC00"/>
<path d="M56.0348 33.1846L58.4955 31.3099L57.4711 30.1994L56.0348 33.1846Z" fill="#FFCC00"/>
<path d="M60.5989 29.8719L57.5063 29.9421L57.6823 31.4426L60.5989 29.8719Z" fill="#FFCC00"/>
<path d="M60.5964 29.8719L58.0531 31.6329L57.3136 30.3155L60.5964 29.8719Z" fill="#FFCC00"/>
<path d="M59.5231 33.1846L58.5006 30.265L57.1279 30.8961L59.5231 33.1846Z" fill="#FFCC00"/>
<path d="M59.5238 33.1846L57.0631 31.3099L58.0875 30.1994L59.5238 33.1846Z" fill="#FFCC00"/>
<path d="M50.4144 17.9227L47.9537 16.0481L48.9781 14.9376L50.4144 17.9227Z" fill="#FFCC00"/>
<path d="M50.4137 17.9227L49.3912 15.0032L48.0185 15.6343L50.4137 17.9227Z" fill="#FFCC00"/>
<path d="M51.4909 14.6101L48.9477 16.3711L48.2081 15.0536L51.4909 14.6101Z" fill="#FFCC00"/>
<path d="M51.4895 14.61L48.3969 14.6803L48.5729 16.1808L51.4895 14.61Z" fill="#FFCC00"/>
<path d="M48.6697 12.5627L49.5586 15.5257L48.0771 15.822L48.6697 12.5627Z" fill="#FFCC00"/>
<path d="M48.6701 12.5627L47.7812 15.5257L49.2627 15.822L48.6701 12.5627Z" fill="#FFCC00"/>
<path d="M46.9293 17.9228L49.39 16.0482L48.3656 14.9377L46.9293 17.9228Z" fill="#FFCC00"/>
<path d="M46.9301 17.9229L47.9525 15.0033L49.3252 15.6344L46.9301 17.9229Z" fill="#FFCC00"/>
<path d="M45.8528 14.6101L48.3961 16.3711L49.1357 15.0536L45.8528 14.6101Z" fill="#FFCC00"/>
<path d="M45.8542 14.61L48.9469 14.6803L48.7708 16.1808L45.8542 14.61Z" fill="#FFCC00"/>
<path d="M53.5199 24.5137L54.5424 21.5941L55.9151 22.2252L53.5199 24.5137Z" fill="#FFCC00"/>
<path d="M53.5192 24.5138L55.9799 22.6392L54.9555 21.5287L53.5192 24.5138Z" fill="#FFCC00"/>
<path d="M57.0043 24.5138L54.5436 22.6392L55.568 21.5287L57.0043 24.5138Z" fill="#FFCC00"/>
<path d="M57.0035 24.5138L55.9811 21.5942L54.6084 22.2253L57.0035 24.5138Z" fill="#FFCC00"/>
<path d="M58.0808 21.201L55.5375 22.962L54.7979 21.6446L58.0808 21.201Z" fill="#FFCC00"/>
<path d="M58.0794 21.201L54.9867 21.2712L55.1628 22.7717L58.0794 21.201Z" fill="#FFCC00"/>
<path d="M52.4427 21.201L54.9859 22.962L55.7255 21.6446L52.4427 21.201Z" fill="#FFCC00"/>
<path d="M52.4441 21.201L55.5367 21.2712L55.3607 22.7717L52.4441 21.201Z" fill="#FFCC00"/>
<path d="M55.2639 19.1537L54.375 22.1166L55.8565 22.4129L55.2639 19.1537Z" fill="#FFCC00"/>
<path d="M55.2635 19.1537L56.1523 22.1166L54.6709 22.4129L55.2635 19.1537Z" fill="#FFCC00"/>
<path d="M52.4402 39.0214L55.5328 39.0916L55.3568 40.5922L52.4402 39.0214Z" fill="#FFCC00"/>
<path d="M52.4427 39.0214L54.9859 40.7824L55.7255 39.465L52.4427 39.0214Z" fill="#FFCC00"/>
<path d="M53.516 42.3342L54.5385 39.4147L55.9112 40.0458L53.516 42.3342Z" fill="#FFCC00"/>
<path d="M53.5152 42.3342L55.976 40.4596L54.9516 39.3491L53.5152 42.3342Z" fill="#FFCC00"/>
<path d="M57.0004 42.3342L54.5397 40.4596L55.564 39.3491L57.0004 42.3342Z" fill="#FFCC00"/>
<path d="M56.9996 42.3342L55.9772 39.4147L54.6045 40.0458L56.9996 42.3342Z" fill="#FFCC00"/>
<path d="M55.2561 36.9741L54.3672 39.9371L55.8487 40.2334L55.2561 36.9741Z" fill="#FFCC00"/>
<path d="M55.2556 36.9741L56.1445 39.9371L54.6631 40.2334L55.2556 36.9741Z" fill="#FFCC00"/>
<path d="M58.0755 39.0214L54.9828 39.0916L55.1588 40.5922L58.0755 39.0214Z" fill="#FFCC00"/>
<path d="M58.073 39.0214L55.5297 40.7824L54.7901 39.465L58.073 39.0214Z" fill="#FFCC00"/>
<path d="M46.0105 44.9853L49.1031 45.0555L48.9271 46.556L46.0105 44.9853Z" fill="#FFCC00"/>
<path d="M46.013 44.9853L48.5562 46.7463L49.2958 45.4289L46.013 44.9853Z" fill="#FFCC00"/>
<path d="M47.0863 48.298L48.1088 45.3784L49.4815 46.0095L47.0863 48.298Z" fill="#FFCC00"/>
<path d="M47.0856 48.298L49.5463 46.4233L48.5219 45.3128L47.0856 48.298Z" fill="#FFCC00"/>
<path d="M50.5707 48.298L48.11 46.4233L49.1344 45.3128L50.5707 48.298Z" fill="#FFCC00"/>
<path d="M50.5699 48.298L49.5475 45.3784L48.1748 46.0095L50.5699 48.298Z" fill="#FFCC00"/>
<path d="M48.8264 42.9379L47.9375 45.9008L49.419 46.1971L48.8264 42.9379Z" fill="#FFCC00"/>
<path d="M48.826 42.9379L49.7148 45.9008L48.2334 46.1971L48.826 42.9379Z" fill="#FFCC00"/>
<path d="M51.6458 44.9853L48.5531 45.0555L48.7292 46.556L51.6458 44.9853Z" fill="#FFCC00"/>
<path d="M51.6433 44.9853L49.1 46.7463L48.3604 45.4289L51.6433 44.9853Z" fill="#FFCC00"/>
</g>
<defs>
<clipPath id="clip0_42_5853">
<rect width="80" height="60" fill="white" transform="translate(0 0.5)"/>
</clipPath>
</defs>
</svg>
