<svg width="80" height="60" viewBox="0 0 80 60" fill="none" xmlns="http://www.w3.org/2000/svg">
<g clip-path="url(#clip0_42_5780)">
<path d="M0 0H80V60H0" fill="#EC1B2E"/>
<path d="M43.2868 12.8875C33.3743 12.25 28.8243 25.2375 38.1993 30.0375C34.9493 27.2375 35.6243 23.125 36.9368 20.9875L37.1743 21.125C35.4493 24.0625 35.7743 27.7125 38.5618 30C36.9743 28.4625 37.3743 25.125 40.0743 23.8875C42.7743 22.65 43.0243 18.975 42.1243 17.75C40.8993 15.6167 41.2868 13.9959 43.2868 12.8875ZM38.4868 20.5L37.8993 21.425L37.6743 20.35L36.5993 20.0625L37.5743 19.525L37.4993 18.4125L38.3118 19.175L39.3493 18.7625L38.8868 19.775L39.5868 20.625L38.4868 20.5Z" fill="white"/>
<path d="M57.0601 29.0325C54.6033 19.4081 40.8454 19.0942 39.1774 29.4936C40.836 25.5375 44.9558 24.9086 47.3943 25.4963L47.3369 25.7647C44.0101 25.0319 40.6392 26.4689 39.325 29.8268C40.2967 27.8419 43.5945 27.191 45.6058 29.3764C47.617 31.5619 51.1894 30.664 52.0764 29.4295C53.7267 27.6052 55.388 27.4729 57.0601 29.0325ZM48.3369 26.8198L47.2756 26.5469L48.2285 26.0007L48.1697 24.8895L48.9822 25.6507L50.0171 25.2356L49.543 26.2439L50.2559 27.1032L49.15 26.9762L48.5579 27.9046L48.3369 26.8198Z" fill="white"/>
<path d="M45.9589 47.1191C54.353 41.8084 50.4002 28.6269 39.9943 30.2541C44.2694 30.6091 46.1405 34.3329 46.3351 36.8336L46.0621 36.862C45.7311 33.4716 43.3227 30.7097 39.723 30.4975C41.9111 30.8083 43.5492 33.7435 42.0922 36.3317C40.6353 38.9199 42.5931 42.0399 44.0413 42.502C46.2863 43.5078 46.9255 45.0469 45.9589 47.1191ZM45.3677 38.1391L45.2993 37.0454L46.1132 37.7829L47.1518 37.3836L46.679 38.3915L47.3936 39.2475L46.2881 39.1082L45.6912 40.0517L45.4702 38.9608L44.4043 38.6845L45.3677 38.1391Z" fill="white"/>
<path d="M25.3293 42.1523C32.974 48.4945 44.2888 40.6618 39.5257 31.268C40.5092 35.4436 37.5458 38.3739 35.2276 39.3317L35.1163 39.0809C38.2385 37.7183 40.1209 34.5744 39.2104 31.0853C39.591 33.2623 37.3056 35.7273 34.3939 35.1414C31.4822 34.5555 29.1198 37.3817 29.1279 38.9018C28.865 41.3477 27.5988 42.4312 25.3293 42.1523ZM33.6871 38.815L34.7061 38.412L34.2562 39.414L34.9569 40.2784L33.8522 40.1402L33.259 41.0843L33.0498 39.9899L31.968 39.7138L32.9373 39.1665L32.8706 38.0674L33.6871 38.815Z" fill="white"/>
<path d="M23.6774 20.996C20.008 30.2264 30.9538 38.567 38.4159 31.1342C34.7486 33.3599 31.046 31.4471 29.4187 29.5383L29.6229 29.3549C31.8835 31.9032 35.4553 32.722 38.4923 30.7778C36.5394 31.8125 33.4889 30.4008 33.1463 27.4505C32.8037 24.5002 29.3859 23.1268 27.9427 23.6042C25.5352 24.11 24.1135 23.2406 23.6774 20.996ZM29.434 27.9135L30.1322 28.7581L29.0403 28.6399L28.4347 29.5734L28.2248 28.48L27.1436 28.2076L28.1198 27.6705L28.0481 26.5563L28.8681 27.309L29.8929 26.906L29.434 27.9135Z" fill="white"/>
</g>
<defs>
<clipPath id="clip0_42_5780">
<rect width="80" height="60" fill="white"/>
</clipPath>
</defs>
</svg>
