<svg width="44" height="45" viewBox="0 0 44 45" fill="none" xmlns="http://www.w3.org/2000/svg">
<path d="M40.8452 12.7862C42.6357 -0.722858 31.9824 0.327623 31.9824 0.327623C28.9869 0.602516 26.2616 1.56464 23.8404 2.94892C23.131 2.89001 22.444 2.86057 21.7458 2.86057C9.72987 2.86057 0 11.343 0 21.8085C0 26.6879 2.12841 31.1352 5.60819 34.4831C5.46179 40.8939 9.09923 43.2403 9.09923 43.2403C13.4236 46.2445 19.6061 44.5559 25.1918 40.5012C35.5523 39.0679 43.4691 31.2433 43.4691 21.8085C43.4691 18.5393 42.5231 15.4762 40.8564 12.7862H40.8452ZM9.96636 41.915C7.30866 40.5012 6.82442 37.1633 6.82442 37.1633C6.40775 34.6794 6.32892 31.9599 7.4438 28.6514H8.11949C7.72534 32.6373 8.70508 35.5139 11.0249 35.9753C13.8178 36.5251 17.748 33.5111 21.0251 28.7201C19.516 30.0455 17.8606 30.7033 16.5768 30.4284C13.7164 29.8393 13.1984 24.8323 15.4056 19.2363C16.2277 17.1452 16.9822 15.7118 18.1759 14.1999H24.1558C22.8832 15.4369 21.6557 17.0077 20.6084 18.7062C19.4597 20.5322 18.6151 22.535 18.1985 24.1549C17.6579 26.1577 17.8156 27.7678 18.7503 28.19C19.989 28.7299 22.1062 26.953 23.6828 24.1549C23.8967 23.7328 24.0882 23.3106 24.2684 22.8688C25.5972 19.8156 26.5544 16.6838 26.8247 14.1999H31.2955C31.6446 9.56599 30.0117 6.43417 27.1738 5.88439C22.0837 4.88299 14.5723 12.0106 9.97762 21.73H9.23437C9.65104 20.7286 10.2817 19.3738 10.2817 19.3738C10.4506 19.0596 10.6195 18.7258 10.7884 18.4116C15.766 9.06528 25.4733 0.229443 33.1198 1.64318C35.5073 2.08497 37.4105 4.5001 37.2415 8.78058C35.6762 7.2294 33.5703 5.75676 31.2955 4.79463C33.1311 6.48326 33.9307 9.80161 32.7933 14.9755C32.2865 17.4495 31.3631 20.1003 29.9441 22.9179C25.3157 32.2545 17.4552 39.1562 12.0272 38.7733C14.0543 39.6569 16.3065 40.246 18.8066 40.4031C14.2795 44.065 9.96636 41.9248 9.96636 41.9248V41.915Z" fill="#2E69C9"/>
</svg>