<svg width="80" height="60" viewBox="0 0 80 60" fill="none" xmlns="http://www.w3.org/2000/svg">
<g clip-path="url(#clip0_42_5726)">
<mask id="mask0_42_5726" style="mask-type:luminance" maskUnits="userSpaceOnUse" x="0" y="0" width="81" height="61">
<path d="M0 0.00317383H80.0039V60.0032H0V0.00317383Z" fill="white"/>
</mask>
<g mask="url(#mask0_42_5726)">
<path fill-rule="evenodd" clip-rule="evenodd" d="M0 0.00317383H80.0156V60.0032H0V0.00317383Z" fill="white"/>
<path fill-rule="evenodd" clip-rule="evenodd" d="M8.76562 18.2268L17.0883 5.74749L19.1682 7.1346L10.8455 19.6139L8.76562 18.2268ZM11.8855 20.3075L20.2081 7.82816L22.288 9.21527L13.9653 21.6946L11.8855 20.3075ZM15.0053 22.3881L23.328 9.90882L25.4078 11.2959L17.0852 23.7753L15.0053 22.3881Z" fill="#000001"/>
<path fill-rule="evenodd" clip-rule="evenodd" d="M54.5234 48.7433L62.8461 36.264L64.926 37.6511L56.6033 50.1304L54.5234 48.7433ZM57.6433 50.824L65.9659 38.3446L68.0458 39.7317L59.7232 52.2111L57.6433 50.824ZM60.7631 52.9046L69.0858 40.4253L71.1657 41.8124L62.843 54.2917L60.7631 52.9046Z" fill="#000001"/>
<path fill-rule="evenodd" clip-rule="evenodd" d="M57.6445 41.8101L68.044 48.7456L57.6445 41.8101Z" fill="black"/>
<path d="M57.6445 41.8101L68.044 48.7456" stroke="white" stroke-width="1.25"/>
<path fill-rule="evenodd" clip-rule="evenodd" d="M27.4883 21.697C29.6956 18.3873 33.1273 16.09 37.0284 15.3105C40.9295 14.5309 44.9805 15.3331 48.2903 17.5404C51.6 19.7477 53.8973 23.1794 54.6768 27.0805C55.4563 30.9816 54.6542 35.0326 52.4469 38.3424L27.4883 21.697Z" fill="#CD2E3A"/>
<path fill-rule="evenodd" clip-rule="evenodd" d="M27.4867 21.697C25.2794 25.0067 24.4773 29.0577 25.2568 32.9588C26.0363 36.8599 28.3337 40.2916 31.6434 42.4989C34.9531 44.7062 39.0041 45.5084 42.9052 44.7288C46.8064 43.9493 50.2381 41.652 52.4454 38.3423C53.549 36.6874 53.9501 34.6619 53.5603 32.7114C53.1706 30.7608 52.0219 29.045 50.367 27.9413C48.7122 26.8376 46.6867 26.4366 44.7361 26.8263C42.7855 27.2161 41.0697 28.3648 39.966 30.0196L27.4867 21.697Z" fill="#0047A0"/>
<path d="M39.9649 30.0197C42.2631 26.5736 41.3326 21.9169 37.8865 19.6187C34.4405 17.3204 29.7838 18.2509 27.4856 21.697C25.1873 25.1431 26.1178 29.7997 29.5639 32.098C33.0099 34.3962 37.6666 33.4657 39.9649 30.0197Z" fill="#CD2E3A"/>
<path fill-rule="evenodd" clip-rule="evenodd" d="M17.125 54.2965L8.80233 41.8172L10.8822 40.4301L19.2049 52.9094L17.125 54.2965ZM20.2448 52.2158L11.9222 39.7365L14.002 38.3494L22.3247 50.8287L20.2448 52.2158ZM23.3647 50.1352L15.042 37.6559L17.1219 36.2687L25.4445 48.7481L23.3647 50.1352Z" fill="#000001"/>
<path fill-rule="evenodd" clip-rule="evenodd" d="M62.8828 23.78L54.5601 11.3007L56.64 9.9136L64.9627 22.3929L62.8828 23.78ZM66.0026 21.6994L57.68 9.22005L59.7599 7.83293L68.0825 20.3123L66.0026 21.6994ZM69.1225 19.6187L60.7998 7.13938L62.8797 5.75227L71.2024 18.2316L69.1225 19.6187Z" fill="#000001"/>
<path fill-rule="evenodd" clip-rule="evenodd" d="M15.5625 46.323L18.6823 44.2423L15.5625 46.323ZM57.6802 18.234L61.32 15.8065L57.6802 18.234ZM64.4398 13.7259L67.5596 11.6452L64.4398 13.7259Z" fill="black"/>
<path d="M15.5625 46.323L18.6823 44.2423M57.6802 18.234L61.32 15.8065M64.4398 13.7259L67.5596 11.6452" stroke="white" stroke-width="1.25"/>
</g>
</g>
<defs>
<clipPath id="clip0_42_5726">
<rect width="80" height="60" fill="white"/>
</clipPath>
</defs>
</svg>
