<svg width="80" height="61" viewBox="0 0 80 61" fill="none" xmlns="http://www.w3.org/2000/svg">
<g clip-path="url(#clip0_42_5841)">
<path d="M0 0.5H80V60.5H0" fill="#BD3D44"/>
<path d="M0 7.41248H80H0ZM0 16.625H80H0ZM0 25.875H80H0ZM0 35.125H80H0ZM0 44.375H80H0ZM0 53.625H80H0Z" fill="black"/>
<path d="M0 5.09998V9.72498H80V5.09998H0ZM0 14.3125V18.9375H80V14.3125H0ZM0 23.5625V28.1875H80V23.5625H0ZM0 32.8125V37.4375H80V32.8125H0ZM0 42.0625V46.6875H80V42.0625H0ZM0 51.3125V55.9375H80V51.3125H0Z" fill="white"/>
<path d="M0 0.5H45.6V32.8125H0" fill="#192F5D"/>
<path d="M41.75 27.75L42.875 31.125L40 29H43.5L40.625 31.125L41.75 27.75ZM34.25 27.75L35.375 31.125L32.5 29H36L33.125 31.125L34.25 27.75ZM26.625 27.75L27.75 31.125L24.875 29H28.375L25.5 31.125L26.625 27.75ZM19 27.75L20.125 31.125L17.25 29H20.75L17.875 31.125L19 27.75ZM11.375 27.75L12.5 31.125L9.625 29H13.125L10.25 31.125L11.375 27.75ZM3.75 27.75L4.875 31.125L2 29H5.5L2.625 31.125L3.75 27.75ZM38 24.5L39.125 27.875L36.25 25.75H39.75L36.875 27.875L38 24.5ZM30.375 24.5L31.5 27.875L28.625 25.75H32.125L29.25 27.875L30.375 24.5ZM22.875 24.5L24 27.875L21.125 25.75H24.625L21.75 27.875L22.875 24.5ZM15.25 24.5L16.375 27.875L13.5 25.75H17L14.125 27.875L15.25 24.5ZM7.625 24.5L8.75 27.875L5.875 25.75H9.375L6.5 27.875L7.625 24.5ZM41.75 21.25L42.875 24.625L40 22.5H43.5L40.625 24.625L41.75 21.25ZM34.25 21.25L35.375 24.625L32.5 22.5H36L33.125 24.625L34.25 21.25ZM26.625 21.25L27.75 24.625L24.875 22.5H28.375L25.5 24.625L26.625 21.25ZM19 21.25L20.125 24.625L17.25 22.5H20.75L17.875 24.625L19 21.25ZM11.375 21.25L12.5 24.625L9.625 22.5H13.125L10.25 24.625L11.375 21.25ZM3.75 21.25L4.875 24.625L2 22.5H5.5L2.625 24.625L3.75 21.25ZM38 18.125L39.125 21.5L36.25 19.375H39.75L36.875 21.5L38 18.125ZM30.375 18.125L31.5 21.5L28.625 19.375H32.125L29.25 21.5L30.375 18.125ZM22.875 18.125L24 21.5L21.125 19.375H24.625L21.75 21.5L22.875 18.125ZM15.25 18.125L16.375 21.5L13.5 19.375H17L14.125 21.5L15.25 18.125ZM7.625 18.125L8.75 21.5L5.875 19.375H9.375L6.5 21.5L7.625 18.125ZM41.75 14.875L42.875 18.25L40 16.125H43.5L40.625 18.25L41.75 14.875ZM34.25 14.875L35.375 18.25L32.5 16.125H36L33.125 18.25L34.25 14.875ZM26.625 14.875L27.75 18.25L24.875 16.125H28.375L25.5 18.25L26.625 14.875ZM19 14.875L20.125 18.25L17.25 16.125H20.75L17.875 18.25L19 14.875ZM11.375 14.875L12.5 18.25L9.625 16.125H13.125L10.25 18.25L11.375 14.875ZM3.75 14.875L4.875 18.25L2 16.125H5.5L2.625 18.25L3.75 14.875ZM38 11.625L39.125 15L36.25 12.875H39.75L36.875 15L38 11.625ZM30.375 11.625L31.5 15L28.625 12.875H32.125L29.25 15L30.375 11.625ZM22.875 11.625L24 15L21.125 12.875H24.625L21.75 15L22.875 11.625ZM15.25 11.625L16.375 15L13.5 12.875H17L14.125 15L15.25 11.625ZM7.625 11.625L8.75 15L5.875 12.875H9.375L6.5 15L7.625 11.625ZM41.75 8.375L42.875 11.75L40 9.625H43.5L40.625 11.75L41.75 8.375ZM34.25 8.375L35.375 11.75L32.5 9.625H36L33.125 11.75L34.25 8.375ZM26.625 8.375L27.75 11.75L24.875 9.625H28.375L25.5 11.75L26.625 8.375ZM19 8.375L20.125 11.75L17.25 9.625H20.75L17.875 11.75L19 8.375ZM11.375 8.375L12.5 11.75L9.625 9.625H13.125L10.25 11.75L11.375 8.375ZM3.75 8.375L4.875 11.75L2 9.625H5.5L2.625 11.75L3.75 8.375ZM38 5.125L39.125 8.5L36.25 6.375H39.75L36.875 8.5L38 5.125ZM30.375 5.125L31.5 8.5L28.625 6.375H32.125L29.25 8.5L30.375 5.125ZM22.875 5.125L24 8.5L21.125 6.375H24.625L21.75 8.5L22.875 5.125ZM15.25 5.125L16.375 8.5L13.5 6.375H17L14.125 8.5L15.25 5.125ZM7.625 5.125L8.75 8.5L5.875 6.375H9.375L6.5 8.5L7.625 5.125ZM41.75 1.875L42.875 5.25L40 3.125H43.5L40.625 5.25L41.75 1.875ZM34.25 1.875L35.375 5.25L32.5 3.125H36L33.125 5.25L34.25 1.875ZM26.625 1.875L27.75 5.25L24.875 3.125H28.375L25.5 5.25L26.625 1.875ZM19 1.875L20.125 5.25L17.25 3.125H20.75L17.875 5.25L19 1.875ZM11.375 1.875L12.5 5.25L9.625 3.125H13.125L10.25 5.25L11.375 1.875ZM3.75 1.875L4.875 5.25L2 3.125H5.5L2.625 5.25L3.75 1.875Z" fill="white"/>
</g>
<defs>
<clipPath id="clip0_42_5841">
<rect width="80" height="60" fill="white" transform="translate(0 0.5)"/>
</clipPath>
</defs>
</svg>
