<svg width="80" height="60" viewBox="0 0 80 60" fill="none" xmlns="http://www.w3.org/2000/svg">
<g clip-path="url(#clip0_42_5719)">
<path d="M70.5607 29.9943C70.5607 46.5749 57.0333 60 40.4012 60C23.769 60 10.207 46.5749 10.207 29.9943C10.207 13.4137 23.7113 0 40.3896 0C57.068 0 70.5491 13.4251 70.5491 29.9943H70.5607Z" fill="white"/>
<path d="M40.3922 58.5657C56.251 58.5657 69.1205 45.7831 69.1205 29.9943C69.1205 14.2054 56.251 1.41138 40.3806 1.41138C24.5102 1.41138 11.6523 14.2169 11.6523 29.9943C11.6523 45.7717 24.5102 58.5657 40.4037 58.5657H40.3922Z" fill="#007BC7"/>
<mask id="mask0_42_5719" style="mask-type:luminance" maskUnits="userSpaceOnUse" x="11" y="1" width="59" height="58">
<path d="M40.3922 58.5657C56.251 58.5657 69.1205 45.7831 69.1205 29.9943C69.1205 14.2054 56.251 1.41138 40.3806 1.41138C24.5102 1.41138 11.6523 14.2169 11.6523 29.9943C11.6523 45.7717 24.5102 58.5657 40.4037 58.5657H40.3922Z" fill="white"/>
</mask>
<g mask="url(#mask0_42_5719)">
<path d="M40.4942 43.7981C53.1213 43.7981 63.9478 47.2978 68.5877 52.2547C70.1459 48.6977 71 44.7849 71 40.6885C71 24.2915 57.3226 11.0155 40.4942 11.0155C23.6658 11.0155 10 24.3029 10 40.6885C10 44.8078 10.8541 48.6977 12.4123 52.2547C17.0407 47.2978 27.8672 43.7981 40.4942 43.7981Z" fill="#007BC7"/>
<path d="M40.4953 43.821C53.0877 43.821 63.8911 47.2978 68.5195 52.2089C70.0777 48.6747 70.9318 44.7963 70.9318 40.7344C70.9318 24.4751 57.3006 11.2565 40.5068 11.2565C23.7131 11.2565 10.0703 24.4865 10.0703 40.7459C10.0703 44.8308 10.9244 48.6977 12.4711 52.2203C17.0879 47.2978 27.8913 43.8325 40.4837 43.8325L40.4953 43.821Z" fill="#007DC8"/>
<path d="M40.4811 43.8554C53.0389 43.8554 63.8192 47.2978 68.4245 52.1744C69.9827 48.6747 70.8253 44.8308 70.8253 40.7918C70.8253 24.6587 57.2287 11.5204 40.4695 11.5204C23.7104 11.5204 10.1484 24.6816 10.1484 40.8032C10.1484 44.8537 11.0026 48.6862 12.5492 52.1859C17.1545 47.3093 27.9233 43.8669 40.4811 43.8669V43.8554Z" fill="#007EC9"/>
<path d="M40.4821 43.8899C53.0053 43.8899 63.751 47.2978 68.3563 52.14C69.903 48.6747 70.7571 44.8537 70.7571 40.8491C70.7571 24.8537 57.1951 11.7728 40.4821 11.7728C23.7692 11.7728 10.2188 24.8652 10.2188 40.8606C10.2188 44.8767 11.0729 48.6862 12.608 52.1515C17.2017 47.3093 27.9474 43.9013 40.4706 43.9013L40.4821 43.8899Z" fill="#0080CA"/>
<path d="M40.4834 43.9243C52.9835 43.9243 63.6945 47.3093 68.2883 52.1056C69.8349 48.6632 70.6775 44.8767 70.6775 40.9065C70.6775 25.0373 57.1502 12.0253 40.4834 12.0253C23.8166 12.0253 10.3008 25.0488 10.3008 40.918C10.3008 44.8996 11.1549 48.6747 12.69 52.1171C17.2722 47.3207 27.9833 43.9358 40.4834 43.9358V43.9243Z" fill="#0082CB"/>
<path d="M40.4729 43.9472C52.9384 43.9472 63.6263 47.3093 68.2086 52.0712C69.7437 48.6633 70.5978 44.9111 70.5978 40.9639C70.5978 25.2324 57.1051 12.2777 40.4844 12.2777C23.8638 12.2777 10.3711 25.2439 10.3711 40.9639C10.3711 44.9226 11.2137 48.6518 12.7488 52.0712C17.3194 47.3093 28.0074 43.9472 40.4729 43.9472Z" fill="#0083CC"/>
<path d="M40.4702 43.9817C52.9011 43.9817 63.566 47.3093 68.1251 52.0367C69.6602 48.6518 70.5028 44.9341 70.5028 41.0213C70.5028 25.416 57.0447 12.5302 40.4702 12.5302C23.8958 12.5302 10.4492 25.4275 10.4492 41.0213C10.4492 44.9455 11.2918 48.6518 12.8269 52.0367C17.386 47.3093 28.0394 43.9817 40.4818 43.9817H40.4702Z" fill="#0085CE"/>
<path d="M40.4713 44.0161C52.8675 44.0161 63.5093 47.3207 68.0569 52.0023C69.592 48.6518 70.4346 44.957 70.4346 41.0901C70.4346 25.6225 57.0111 12.7941 40.4713 12.7941C23.9315 12.7941 10.5195 25.6111 10.5195 41.0786C10.5195 44.9685 11.3621 48.6403 12.8857 51.9909C17.4332 47.3093 28.0635 44.0046 40.4597 44.0046L40.4713 44.0161Z" fill="#0087CF"/>
<path d="M40.4608 44.0505C52.8224 44.0505 63.4411 47.3207 67.9772 51.9679C69.5007 48.6403 70.3433 44.98 70.3433 41.1475C70.3433 25.8061 56.9545 13.0465 40.4608 13.0465C23.9671 13.0465 10.5898 25.8061 10.5898 41.136C10.5898 44.9914 11.4324 48.6403 12.956 51.9564C17.492 47.3207 28.0992 44.0391 40.4608 44.0391V44.0505Z" fill="#0089D0"/>
<path d="M40.4581 44.0849C52.7851 44.0849 63.3692 47.3322 67.9052 51.9335C69.4288 48.6403 70.2714 45.0144 70.2714 41.2049C70.2714 26.0012 56.9172 13.3104 40.4697 13.3104C24.0222 13.3104 10.668 25.9897 10.668 41.1934C10.668 45.0144 11.5105 48.6288 13.0226 51.922C17.5355 47.3208 28.1196 44.0735 40.4581 44.0735V44.0849Z" fill="#008BD1"/>
<path d="M40.4592 44.1079C52.7515 44.1079 63.3125 47.3208 67.8255 51.8876C69.3491 48.6174 70.1801 45.0259 70.1801 41.2508C70.1801 26.1733 56.8605 13.5514 40.4592 13.5514C24.0579 13.5514 10.7383 26.1848 10.7383 41.2508C10.7383 45.0373 11.5693 48.6174 13.0929 51.8876C17.5943 47.3208 28.1553 44.1079 40.4592 44.1079Z" fill="#008CD2"/>
<path d="M40.4489 44.1423C52.7066 44.1423 63.2445 47.3322 67.7459 51.8532C69.258 48.6174 70.1005 45.0488 70.1005 41.3081C70.1005 26.3569 56.8156 13.8038 40.4489 13.8038C24.0822 13.8038 10.8203 26.3684 10.8203 41.3081C10.8203 45.0603 11.6513 48.6174 13.1634 51.8532C17.6532 47.3322 28.1796 44.1423 40.4489 44.1423Z" fill="#008ED3"/>
<path d="M40.4499 44.1768C52.6846 44.1768 63.1879 47.3322 67.6778 51.8188C69.1898 48.6059 70.0208 45.0718 70.0208 41.3655C70.0208 26.552 56.7705 14.0563 40.4499 14.0563C24.1294 14.0563 10.8906 26.552 10.8906 41.3655C10.8906 45.0832 11.7217 48.6059 13.2337 51.8188C17.712 47.3322 28.2153 44.1768 40.4499 44.1768Z" fill="#0090D4"/>
<path d="M40.4473 44.2112C52.6473 44.2112 63.1275 47.3437 67.6058 51.7843C69.1063 48.6059 69.9489 45.1062 69.9489 41.4229C69.9489 26.7356 56.7332 14.3087 40.4588 14.3087C24.1845 14.3087 10.9688 26.747 10.9688 41.4229C10.9688 45.1062 11.7998 48.6059 13.3003 51.7843C17.767 47.3437 28.2473 44.2112 40.4473 44.2112Z" fill="#0092D5"/>
<path d="M40.4368 44.2341C52.6022 44.2341 63.0593 47.3322 67.5146 51.7384C69.015 48.583 69.8461 45.1177 69.8461 41.4803C69.8461 26.9306 56.665 14.5726 40.4368 14.5726C24.2086 14.5726 11.0391 26.9306 11.0391 41.4803C11.0391 45.1291 11.8701 48.5944 13.3706 51.7384C17.8258 47.3322 28.2714 44.2341 40.4483 44.2341H40.4368Z" fill="#0094D6"/>
<path d="M40.4379 44.2686C52.5686 44.2686 62.9911 47.3437 67.4464 51.704C68.9468 48.583 69.7779 45.1406 69.7779 41.5376C69.7779 27.1142 56.6314 14.8251 40.4379 14.8251C24.2443 14.8251 11.1094 27.1142 11.1094 41.5376C11.1094 45.1521 11.9404 48.5944 13.4293 51.704C17.873 47.3437 28.2956 44.2686 40.4379 44.2686Z" fill="#0096D7"/>
<path d="M40.4352 44.303C52.5313 44.303 62.9307 47.3437 67.3744 51.6696C68.8634 48.5715 69.6944 45.175 69.6944 41.595C69.6944 27.3093 56.5826 15.0775 40.4352 15.0775C24.2878 15.0775 11.1875 27.3093 11.1875 41.595C11.1875 45.175 12.007 48.583 13.4959 51.6696C17.9281 47.3437 28.316 44.303 40.4236 44.303H40.4352Z" fill="#0098D8"/>
<path d="M40.4247 44.3374C52.4862 44.3374 62.8625 47.3552 67.2947 51.6352C68.7836 48.5715 69.6031 45.198 69.6031 41.6524C69.6031 27.4929 56.5259 15.33 40.4247 15.33C24.3235 15.33 11.2578 27.4929 11.2578 41.6524C11.2578 45.198 12.0773 48.5715 13.5662 51.6352C17.9869 47.3552 28.3517 44.3374 40.4247 44.3374Z" fill="#009AD9"/>
<path d="M40.4259 44.3604C52.4528 44.3604 62.8061 47.3437 67.2151 51.5893C68.7041 48.5485 69.5236 45.2095 69.5236 41.6983C69.5236 27.665 56.4925 15.5709 40.4259 15.5709C24.3593 15.5709 11.3398 27.6765 11.3398 41.7098C11.3398 45.2324 12.1593 48.5715 13.6367 51.6008C18.0458 47.3552 28.376 44.3718 40.4259 44.3718V44.3604Z" fill="#009CDA"/>
<path d="M40.4231 44.3948C52.4269 44.3948 62.7455 47.3552 67.1431 51.5549C68.6204 48.5371 69.4399 45.2324 69.4399 41.7557C69.4399 27.8601 56.4435 15.8234 40.4116 15.8234C24.3796 15.8234 11.4062 27.8716 11.4062 41.7671C11.4062 45.2554 12.2257 48.56 13.7031 51.5663C18.1007 47.3667 28.4078 44.4063 40.4231 44.4063V44.3948Z" fill="#009EDB"/>
<path d="M40.4128 44.4291C52.3819 44.4291 62.666 47.3551 67.0635 51.5203C68.5409 48.537 69.3604 45.2553 69.3604 41.8129C69.3604 28.0436 56.3986 16.0872 40.4128 16.0872C24.427 16.0872 11.4883 28.055 11.4883 41.8244C11.4883 45.2782 12.3078 48.5599 13.7736 51.5318C18.1596 47.3666 28.4436 44.4406 40.4128 44.4406V44.4291Z" fill="#00A0DC"/>
<path d="M40.4138 44.4635C52.3484 44.4635 62.6093 47.3666 66.9953 51.4859C68.4727 48.5255 69.2806 45.2897 69.2806 41.8703C69.2806 28.2386 56.3535 16.3396 40.4138 16.3396C24.4742 16.3396 11.5586 28.2501 11.5586 41.8818C11.5586 45.3012 12.3665 48.5484 13.8439 51.4974C18.2184 47.378 28.4678 44.475 40.4138 44.475V44.4635Z" fill="#00A2DD"/>
<path d="M40.4149 44.4865C52.3148 44.4865 62.5527 47.3666 66.9156 51.4515C68.3814 48.5255 69.2009 45.3126 69.2009 41.9391C69.2009 28.4337 56.3084 16.6035 40.4149 16.6035C24.5214 16.6035 11.6289 28.4337 11.6289 41.9277C11.6289 45.3126 12.4369 48.5255 13.9027 51.44C18.2656 47.3551 28.4919 44.475 40.4034 44.475L40.4149 44.4865Z" fill="#00A4DE"/>
<path d="M40.4007 44.5209C52.266 44.5209 62.4807 47.3666 66.8321 51.4171C68.298 48.514 69.1059 45.3356 69.1059 41.9965C69.1059 28.6288 56.248 16.856 40.4007 16.856C24.5534 16.856 11.707 28.6173 11.707 41.985C11.707 45.3356 12.515 48.5255 13.9808 51.4056C18.3322 47.3666 28.5239 44.5094 40.4122 44.5094L40.4007 44.5209Z" fill="#00A6DF"/>
<path d="M40.4018 44.5553C52.2324 44.5553 62.4241 47.378 66.7639 51.3826C68.2298 48.514 69.0377 45.37 69.0377 42.0539C69.0377 28.8124 56.2144 17.1084 40.4018 17.1084C24.5891 17.1084 11.7773 28.8124 11.7773 42.0424C11.7773 45.3585 12.5853 48.514 14.0396 51.3712C18.3794 47.3666 28.548 44.5439 40.3902 44.5439L40.4018 44.5553Z" fill="#00A9E0"/>
<path d="M40.403 44.5898C52.199 44.5898 62.3561 47.3781 66.6959 51.3482C68.1502 48.5026 68.9581 45.393 68.9581 42.1113C68.9581 29.0074 56.1695 17.3608 40.403 17.3608C24.6365 17.3608 11.8594 28.9959 11.8594 42.0998C11.8594 45.3815 12.6673 48.514 14.1216 51.3367C18.4499 47.3666 28.5954 44.5783 40.403 44.5783V44.5898Z" fill="#00ABE1"/>
<path d="M40.3886 44.6127C52.15 44.6127 62.284 47.3781 66.6007 51.3023C68.055 48.4911 68.863 45.4044 68.863 42.1572C68.863 29.1795 56.1089 17.6133 40.3886 17.6133C24.6683 17.6133 11.9258 29.1795 11.9258 42.1572C11.9258 45.4044 12.7337 48.5026 14.1765 51.3023C18.4932 47.3781 28.6041 44.6127 40.3886 44.6127Z" fill="#00ADE2"/>
<path d="M40.3898 44.6471C52.1282 44.6471 62.2275 47.3781 66.5327 51.2679C67.9755 48.4911 68.7834 45.4274 68.7834 42.2145C68.7834 29.3631 56.064 17.8657 40.3783 17.8657C24.6926 17.8657 12.0078 29.3746 12.0078 42.2145C12.0078 45.4274 12.8042 48.4911 14.2585 51.2679C18.5637 47.3781 28.6515 44.6471 40.4014 44.6471H40.3898Z" fill="#01AFE3"/>
<path d="M40.3909 44.6816C52.0946 44.6816 62.1708 47.3895 66.4645 51.2335C67.9073 48.4796 68.7152 45.4618 68.7152 42.2719C68.7152 29.5582 56.0304 18.1182 40.3909 18.1182C24.7514 18.1182 12.0781 29.5582 12.0781 42.2719C12.0781 45.4503 12.8745 48.4911 14.3173 51.2335C18.611 47.3895 28.6641 44.6816 40.3909 44.6816Z" fill="#14B1E4"/>
<path d="M40.3921 44.716C52.0612 44.716 62.1144 47.3895 66.3965 51.1991C67.8393 48.4796 68.6357 45.4848 68.6357 42.3293C68.6357 29.7418 55.9855 18.3706 40.3921 18.3706C24.7988 18.3706 12.1602 29.7418 12.1602 42.3293C12.1602 45.4848 12.9566 48.4796 14.3993 51.1991C18.6814 47.3895 28.7115 44.716 40.3921 44.716Z" fill="#20B4E5"/>
<path d="M40.3777 44.7504C52.0122 44.7504 62.0423 47.401 66.3128 51.1646C67.7441 48.4681 68.552 45.5077 68.552 42.3981C68.552 29.9483 55.9365 18.6345 40.3893 18.6345C24.8421 18.6345 12.2266 29.9369 12.2266 42.3867C12.2266 45.5077 13.023 48.4796 14.4542 51.1532C18.7248 47.3895 28.7318 44.7389 40.3777 44.7389V44.7504Z" fill="#28B6E6"/>
<path d="M40.3788 44.7734C51.9786 44.7734 61.9741 47.3895 66.2331 51.1187C67.6643 48.4452 68.4607 45.5192 68.4607 42.444C68.4607 30.1205 55.8798 18.8755 40.3788 18.8755C24.8778 18.8755 12.2969 30.1205 12.2969 42.444C12.2969 45.5307 13.0933 48.4681 14.513 51.1187C18.772 47.3895 28.7444 44.7734 40.3673 44.7734H40.3788Z" fill="#30B8E7"/>
<path d="M40.3795 44.8537C51.9678 44.8537 61.9517 47.4584 66.1992 51.1532C67.6304 48.5026 68.4268 45.5995 68.4268 42.5358C68.4268 30.2926 55.869 19.1165 40.3795 19.1165C24.89 19.1165 12.3438 30.2926 12.3438 42.5358C12.3438 45.5995 13.1402 48.5255 14.5598 51.1532C18.8073 47.4469 28.7682 44.8537 40.3795 44.8537Z" fill="#3FBAE8"/>
<path d="M40.38 44.9225C51.9568 44.9225 61.9176 47.5043 66.1651 51.1876C67.5963 48.5599 68.3927 45.6684 68.3927 42.6276C68.3927 30.4647 55.8465 19.3574 40.38 19.3574C24.9136 19.3574 12.3789 30.4647 12.3789 42.6162C12.3789 45.6569 13.1638 48.5599 14.595 51.1761C18.8425 47.4928 28.7918 44.9111 40.38 44.9111V44.9225Z" fill="#4CBDE9"/>
<path d="M40.3806 44.9914C51.9342 44.9914 61.8951 47.5617 66.131 51.2106C67.5507 48.5944 68.3471 45.7258 68.3471 42.6965C68.3471 30.6139 55.8239 19.564 40.3806 19.564C24.9372 19.564 12.4141 30.6254 12.4141 42.708C12.4141 45.7372 13.1989 48.6173 14.6301 51.222C18.8661 47.5731 28.8038 45.0029 40.3806 45.0029V44.9914Z" fill="#56BFEA"/>
<path d="M40.3774 45.0717C51.9195 45.0717 61.8572 47.619 66.0932 51.2564C67.5128 48.6632 68.3092 45.8061 68.3092 42.7998C68.3092 30.7975 55.7976 19.8164 40.3774 19.8164C24.9571 19.8164 12.457 30.7975 12.457 42.7998C12.457 45.8061 13.2419 48.6632 14.6616 51.2564C18.8975 47.6305 28.8237 45.0717 40.3774 45.0717Z" fill="#60C1EA"/>
<path d="M40.3779 45.1406C51.9085 45.1406 61.8231 47.6764 66.0591 51.2794C67.4788 48.6976 68.2752 45.8635 68.2752 42.8801C68.2752 30.9581 55.7866 20.0344 40.3779 20.0344C24.9692 20.0344 12.4922 30.9696 12.4922 42.8801C12.4922 45.8635 13.2771 48.7091 14.6967 51.2794C18.9211 47.6764 28.8358 45.1406 40.3779 45.1406Z" fill="#69C4EB"/>
<path d="M40.3784 45.2094C51.8859 45.2094 61.8006 47.7223 66.025 51.3024C67.4447 48.7435 68.2411 45.9323 68.2411 42.9604C68.2411 31.1188 55.764 20.2639 40.39 20.2639C25.0159 20.2639 12.5273 31.1302 12.5273 42.9719C12.5273 45.9323 13.3122 48.755 14.7319 51.3138C18.9563 47.7338 28.8479 45.2209 40.3784 45.2209V45.2094Z" fill="#71C6EC"/>
<path d="M40.3791 45.2783C51.8751 45.2783 61.7667 47.7797 65.9911 51.3368C67.4107 48.7894 68.1956 46.0012 68.1956 43.0522C68.1956 31.2909 55.7301 20.5049 40.3791 20.5049C25.0281 20.5049 12.5742 31.3024 12.5742 43.0637C12.5742 46.0126 13.3591 48.8124 14.7672 51.3483C18.9801 47.7912 28.8717 45.2897 40.3791 45.2897V45.2783Z" fill="#79C9ED"/>
<path d="M40.3797 45.3586C51.8641 45.3586 61.7441 47.8371 65.957 51.3712C67.3651 48.8468 68.1615 46.07 68.1615 43.144C68.1615 31.463 55.7191 20.7344 40.3797 20.7344C25.0402 20.7344 12.6094 31.4745 12.6094 43.144C12.6094 46.07 13.3942 48.8468 14.8024 51.3712C19.0152 47.8371 28.8837 45.3586 40.3797 45.3586Z" fill="#81CBEE"/>
<path d="M40.3802 45.4274C51.8415 45.4274 61.71 47.8944 65.9229 51.4056C67.331 48.8927 68.1274 46.1389 68.1274 43.2358C68.1274 31.6351 55.6966 20.9753 40.3917 20.9753C25.0869 20.9753 12.6445 31.6351 12.6445 43.2358C12.6445 46.1389 13.4179 48.9042 14.8375 51.4056C19.0389 47.8944 28.9073 45.4274 40.3802 45.4274Z" fill="#88CEEF"/>
<path d="M40.377 45.5078C51.8268 45.5078 61.6837 47.9518 65.885 51.4401C67.2932 48.9501 68.078 46.2077 68.078 43.3276C68.078 31.8072 55.6703 21.2048 40.377 21.2048C25.0837 21.2048 12.6875 31.8072 12.6875 43.3276C12.6875 46.2077 13.4608 48.9501 14.869 51.4401C19.0703 47.9518 28.9157 45.5078 40.377 45.5078Z" fill="#8FD0F0"/>
<path d="M40.3775 45.5766C51.8158 45.5766 61.6496 48.0092 65.8509 51.463C67.2591 48.9845 68.0439 46.2766 68.0439 43.4079C68.0439 31.9679 55.6477 21.4343 40.3775 21.4343C25.1073 21.4343 12.7227 31.9794 12.7227 43.4079C12.7227 46.2766 13.496 48.996 14.9041 51.463C19.0939 48.0092 28.9393 45.5766 40.3775 45.5766Z" fill="#96D3F1"/>
<path d="M40.3781 45.6455C51.8047 45.6455 61.6271 48.0551 65.8169 51.4974C67.225 49.0419 68.0098 46.3454 68.0098 43.4997C68.0098 32.14 55.6367 21.6753 40.3896 21.6753C25.1425 21.6753 12.7578 32.14 12.7578 43.4997C12.7578 46.3454 13.5311 49.0419 14.9393 51.4974C19.1291 48.0666 28.9514 45.6455 40.3781 45.6455Z" fill="#9CD5F1"/>
<path d="M40.3786 45.7258C51.7822 45.7258 61.593 48.1239 65.7712 51.5319C67.1678 49.0878 67.9642 46.4143 67.9642 43.5915C67.9642 32.3121 55.6026 21.9048 40.3786 21.9048C25.1546 21.9048 12.793 32.3121 12.793 43.5915C12.793 46.4143 13.5663 49.0993 14.9629 51.5319C19.1411 48.1239 28.9519 45.7258 40.367 45.7258H40.3786Z" fill="#A3D7F2"/>
<path d="M40.3793 45.7946C51.7714 45.7946 61.5706 48.1698 65.7373 51.5663C67.1339 49.1452 67.9188 46.4831 67.9188 43.6833C67.9188 32.4842 55.5802 22.1458 40.3678 22.1458C25.1553 22.1458 12.8398 32.4843 12.8398 43.6719C12.8398 46.4716 13.6132 49.1337 15.0098 51.5548C19.188 48.1698 28.9872 45.7832 40.3793 45.7832V45.7946Z" fill="#A9DAF3"/>
<path d="M40.3798 45.8635C51.7603 45.8635 61.5365 48.2272 65.7032 51.5892C67.0998 49.1796 67.8847 46.5405 67.8847 43.7637C67.8847 32.6449 55.5577 22.3638 40.3798 22.3638C25.202 22.3638 12.875 32.6449 12.875 43.7637C12.875 46.5519 13.6483 49.1911 15.0449 51.5892C19.2116 48.2272 28.9993 45.8635 40.3798 45.8635Z" fill="#AFDCF4"/>
<path d="M40.3804 45.9438C51.7378 45.9438 61.5024 48.2846 65.6691 51.6237C67.0657 49.237 67.8505 46.6208 67.8505 43.8555C67.8505 32.817 55.5351 22.6047 40.3804 22.6047C25.2256 22.6047 12.9102 32.817 12.9102 43.8555C12.9102 46.6208 13.6719 49.2485 15.0801 51.6237C19.2468 48.2846 29.0229 45.9438 40.3804 45.9438Z" fill="#B4DFF5"/>
<path d="M40.3772 46.0127C51.723 46.0127 61.4761 48.342 65.6313 51.6581C67.0163 49.2829 67.8012 46.6897 67.8012 43.9473C67.8012 32.9891 55.5089 22.8457 40.3656 22.8457C25.2224 22.8457 12.9531 32.9891 12.9531 43.9358C12.9531 46.6782 13.7149 49.2829 15.1115 51.6466C19.2782 48.3305 29.0313 46.0012 40.3772 46.0012V46.0127Z" fill="#BAE1F6"/>
<path d="M40.3777 46.0815C51.712 46.0815 61.442 48.3879 65.5972 51.681C66.9822 49.3288 67.7671 46.747 67.7671 44.0276C67.7671 33.1498 55.4863 23.0637 40.3777 23.0637C25.2691 23.0637 12.9883 33.1613 12.9883 44.0276C12.9883 46.747 13.7501 49.3288 15.1467 51.681C19.3018 48.3879 29.0433 46.0815 40.3777 46.0815Z" fill="#BFE3F6"/>
<path d="M40.3782 46.1504C51.6895 46.1504 61.4195 48.4453 65.5631 51.704C66.9481 49.3632 67.733 46.8044 67.733 44.1079C67.733 33.3104 55.4753 23.2932 40.3782 23.2932C25.2811 23.2932 13.0234 33.3219 13.0234 44.1194C13.0234 46.8274 13.7852 49.3862 15.1818 51.7155C19.3254 48.4452 29.067 46.1618 40.3782 46.1618V46.1504Z" fill="#C5E6F7"/>
<path d="M40.3789 46.2307C51.6786 46.2307 61.3855 48.5141 65.5292 51.7499C66.9142 49.4321 67.6991 46.8847 67.6991 44.2112C67.6991 33.494 55.4529 23.5342 40.3789 23.5342C25.3049 23.5342 13.0703 33.494 13.0703 44.1997C13.0703 46.8847 13.8321 49.4321 15.2171 51.7384C19.3608 48.5026 29.0792 46.2192 40.3789 46.2192V46.2307Z" fill="#CAE8F8"/>
<path d="M40.3795 46.2995C51.6676 46.2995 61.363 48.56 65.4951 51.7729C66.8801 49.478 67.6534 46.9536 67.6534 44.2915C67.6534 33.6547 55.4304 23.7637 40.3795 23.7637C25.3286 23.7637 13.1055 33.6661 13.1055 44.2915C13.1055 46.9536 13.8672 49.478 15.2523 51.7729C19.3844 48.56 29.1028 46.2995 40.3795 46.2995Z" fill="#CFEAF9"/>
<path d="M40.38 46.3684C51.6451 46.3684 61.3289 48.6174 65.461 51.8073C66.8345 49.5239 67.6193 47.0224 67.6193 44.3833C67.6193 33.8268 55.4078 24.0046 40.38 24.0046C25.3522 24.0046 13.1406 33.8268 13.1406 44.3833C13.1406 47.0339 13.9024 49.5353 15.2875 51.8073C19.4195 48.6174 29.1149 46.3684 40.38 46.3684Z" fill="#D5ECFA"/>
<path d="M40.3805 46.4487C51.6341 46.4487 61.2948 48.6748 65.4269 51.8417C66.8004 49.5812 67.5852 47.0913 67.5852 44.4751C67.5852 33.9989 55.3968 24.2341 40.3805 24.2341C25.3642 24.2341 13.1758 33.9989 13.1758 44.4636C13.1758 47.0913 13.926 49.5698 15.3111 51.8302C19.4431 48.6633 29.1154 46.4372 40.369 46.4372L40.3805 46.4487Z" fill="#DAEFFA"/>
<path d="M40.3773 46.5176C51.6193 46.5176 61.2685 48.7207 65.389 51.8647C66.7626 49.6157 67.5474 47.1486 67.5474 44.5554C67.5474 34.1596 55.3705 24.4636 40.3889 24.4636C25.4072 24.4636 13.2188 34.171 13.2188 44.5554C13.2188 47.1601 13.969 49.6271 15.354 51.8647C19.4746 48.7207 29.1468 46.5176 40.3773 46.5176Z" fill="#DFF1FB"/>
<path d="M40.3778 46.5864C51.6083 46.5864 61.2344 48.778 65.3549 51.8991C66.7285 49.673 67.5018 47.2175 67.5018 44.6472C67.5018 34.3317 55.3364 24.6931 40.3778 24.6931C25.4193 24.6931 13.2539 34.3317 13.2539 44.6472C13.2539 47.229 14.0041 49.673 15.3892 51.8991C19.5097 48.778 29.1589 46.5864 40.3778 46.5864Z" fill="#E4F3FC"/>
<path d="M40.3784 46.6667C51.5858 46.6667 61.2119 48.8354 65.3209 51.9335C66.6944 49.7189 67.4677 47.2978 67.4677 44.7275C67.4677 34.4923 55.3254 24.9226 40.3784 24.9226C25.4314 24.9226 13.2891 34.5038 13.2891 44.7275C13.2891 47.2978 14.0393 49.7189 15.4244 51.9335C19.5333 48.8354 29.1825 46.6667 40.3784 46.6667Z" fill="#E9F5FC"/>
<path d="M40.3791 46.7356C51.5749 46.7356 61.1779 48.8928 65.2869 51.9679C66.6489 49.7648 67.4338 47.3667 67.4338 44.8193C67.4338 34.6644 55.303 25.1636 40.3906 25.1636C25.4782 25.1636 13.3359 34.6759 13.3359 44.8193C13.3359 47.3667 14.0862 49.7648 15.4597 51.9679C19.5687 48.8928 29.1948 46.7356 40.3791 46.7356Z" fill="#EDF7FD"/>
<path d="M40.3796 46.8044C51.5639 46.8044 61.1554 48.9502 65.2413 51.9909C66.6033 49.8107 67.3766 47.424 67.3766 44.8997C67.3766 34.8251 55.2689 25.3816 40.3681 25.3816C25.4672 25.3816 13.3711 34.8366 13.3711 44.9111C13.3711 47.4355 14.1213 49.8222 15.4948 52.0024C19.5923 48.9502 29.2069 46.8159 40.3796 46.8159V46.8044Z" fill="#F2F9FD"/>
<path d="M40.3801 46.8848C51.5414 46.8848 61.1213 49.0075 65.2072 52.0253C66.5692 49.8681 67.3425 47.4929 67.3425 44.9915C67.3425 34.9972 55.2464 25.6226 40.3686 25.6226C25.4908 25.6226 13.4062 35.0087 13.4062 44.9915C13.4062 47.5044 14.1565 49.8566 15.53 52.0253C19.6274 49.0075 29.2305 46.8848 40.3801 46.8848Z" fill="#F7FBFE"/>
<path d="M40.3769 46.9536C51.5266 46.9536 61.095 49.0649 65.1694 52.0597C66.5313 49.914 67.3047 47.5732 67.3047 45.0833C67.3047 35.1693 55.2316 25.8521 40.3769 25.8521C25.5223 25.8521 13.4492 35.1808 13.4492 45.0833C13.4492 47.5732 14.1879 49.914 15.5614 52.0597C19.6473 49.0649 29.2388 46.9536 40.3769 46.9536Z" fill="#FBFDFF"/>
<path d="M40.3775 47.0223C51.5156 47.0223 61.0609 49.1107 65.1353 52.0826C66.4972 49.9598 67.2706 47.6305 67.2706 45.1635C67.2706 35.3298 55.2091 26.0814 40.3775 26.0814C25.5459 26.0814 13.4844 35.3413 13.4844 45.1749C13.4844 47.6419 14.2231 49.9598 15.5966 52.094C19.6825 49.1222 29.2624 47.0338 40.389 47.0338L40.3775 47.0223Z" fill="white"/>
</g>
<path d="M40.3794 37.2002C30.6378 37.2002 21.6004 38.8296 14.1211 41.6064C18.5994 51.6007 28.6757 58.5542 40.4025 58.5542C52.1292 58.5542 62.1478 51.6007 66.6377 41.6064C59.1815 38.8296 50.144 37.2002 40.3909 37.2002H40.3794Z" fill="#007BC7"/>
</g>
<defs>
<clipPath id="clip0_42_5719">
<rect width="80" height="60" fill="white"/>
</clipPath>
</defs>
</svg>
