<svg width="429" height="42" viewBox="0 0 429 42" fill="none" xmlns="http://www.w3.org/2000/svg">
<g clip-path="url(#clip0_322_10854)">
<path d="M42.0145 20.9926C42.0145 32.5926 32.6071 41.9852 21.0367 41.9852C9.46633 41.9852 0.0292969 32.5926 0.0292969 20.9926C0.0292969 9.39259 9.42189 0 21.0367 0C32.6515 0 42.0145 9.40741 42.0145 20.9926Z" fill="white"/>
<path d="M21.05 41.007C32.087 41.007 41.0352 32.044 41.0352 21.007C41.0352 9.96997 32.0722 0.992188 21.0352 0.992188C9.99812 0.992188 1.03516 9.95515 1.03516 21.007C1.03516 32.0589 9.9833 41.007 21.05 41.007Z" fill="#0083CA"/>
<mask id="mask0_322_10854" style="mask-type:luminance" maskUnits="userSpaceOnUse" x="1" y="1" width="41" height="41">
<path d="M21.05 41.0078C32.087 41.0078 41.0352 32.0448 41.0352 21.0078C41.0352 9.97078 32.0722 1.00781 21.0352 1.00781C9.99812 1.00781 1.03516 9.97078 1.03516 21.0078C1.03516 32.0448 9.9833 41.0078 21.05 41.0078Z" fill="white"/>
</mask>
<g mask="url(#mask0_322_10854)">
<path d="M21.2148 30.6509C30.0148 30.6509 37.5407 33.1102 40.7852 36.5917C41.8519 34.1176 42.4444 31.3621 42.4444 28.5028C42.4444 17.0213 32.9333 7.73242 21.2148 7.73242C9.4963 7.73242 0 17.0213 0 28.5028C0 31.3621 0.607407 34.1028 1.67407 36.5917C4.9037 33.1102 12.4444 30.6509 21.2296 30.6509H21.2148Z" fill="#0083CA"/>
<path d="M21.2141 30.6641C29.9845 30.6641 37.4956 33.1085 40.7253 36.5456C41.7919 34.0863 42.3845 31.3604 42.3845 28.5159C42.3845 17.1234 32.903 7.87891 21.2141 7.87891C9.52526 7.87891 0.0585938 17.153 0.0585938 28.5456C0.0585938 31.39 0.666001 34.1011 1.71785 36.5604C4.93267 33.1085 12.4586 30.6789 21.2141 30.6789V30.6641Z" fill="#0085CB"/>
<path d="M21.2146 30.6945C29.9702 30.6945 37.4517 33.1093 40.6813 36.5315C41.748 34.1019 42.3406 31.3908 42.3406 28.576C42.3406 17.2723 32.8739 8.07227 21.2146 8.07227C9.55537 8.07227 0.103516 17.2723 0.103516 28.576C0.103516 31.3908 0.696108 34.0871 1.76277 36.5315C4.97759 33.1093 12.4739 30.6945 21.2146 30.6945Z" fill="#0086CD"/>
<path d="M21.2151 30.7093C29.941 30.7093 37.4225 33.1093 40.6225 36.5019C41.6892 34.087 42.2818 31.4056 42.2818 28.6056C42.2818 17.4056 32.8447 8.25 21.2151 8.25C9.58547 8.25 0.148438 17.4056 0.148438 28.6204C0.148438 31.4204 0.74103 34.087 1.8077 36.5167C5.0077 33.1241 12.4892 30.7241 21.2151 30.7241V30.7093Z" fill="#0088CE"/>
<path d="M21.2164 30.7408C29.9275 30.7408 37.3794 33.126 40.5794 36.4889C41.646 34.0889 42.2238 31.4371 42.2238 28.6519C42.2238 17.5408 32.8164 8.42969 21.2164 8.42969C9.61639 8.42969 0.208984 17.5408 0.208984 28.6519C0.208984 31.4223 0.801577 34.0741 1.86824 36.4741C5.06824 33.1112 12.5201 30.726 21.2164 30.726V30.7408Z" fill="#008ACF"/>
<path d="M21.2001 30.7548C29.8816 30.7548 37.3186 33.1103 40.5186 36.4436C41.5705 34.0733 42.1631 31.4362 42.1631 28.6807C42.1631 17.6585 32.7705 8.5918 21.2001 8.5918C9.62973 8.5918 0.251953 17.6733 0.251953 28.6955C0.251953 31.4511 0.844546 34.0733 1.8964 36.4585C5.08158 33.1251 12.5334 30.7696 21.2001 30.7696V30.7548Z" fill="#008CD0"/>
<path d="M21.2014 30.7852C29.8681 30.7852 37.2755 33.1259 40.4607 36.4296C41.5125 34.074 42.1051 31.4518 42.1051 28.7259C42.1051 17.7926 32.7421 8.78516 21.2014 8.78516C9.66065 8.78516 0.3125 17.8074 0.3125 28.7407C0.3125 31.4666 0.905093 34.0889 1.95694 36.4296C5.14213 33.1259 12.5644 30.7852 21.2014 30.7852Z" fill="#008ED2"/>
<path d="M21.1999 30.798C29.837 30.798 37.2295 33.1239 40.4147 36.398C41.4666 34.0572 42.0444 31.4646 42.0444 28.7683C42.0444 17.9239 32.711 8.96094 21.1999 8.96094C9.6888 8.96094 0.355469 17.9387 0.355469 28.7683C0.355469 31.4795 0.948061 34.0572 1.99991 36.398C5.17028 33.1239 12.5777 30.798 21.1999 30.798Z" fill="#008FD3"/>
<path d="M21.1992 30.8276C29.8215 30.8276 37.1992 33.1239 40.3548 36.3831C41.4067 34.072 41.9844 31.4942 41.9844 28.8127C41.9844 18.072 32.6659 9.13867 21.1844 9.13867C9.70295 9.13867 0.414062 18.072 0.414062 28.8127C0.414062 31.4942 1.00666 34.0572 2.05851 36.3831C5.22888 33.1387 12.6067 30.8276 21.1992 30.8276Z" fill="#0091D4"/>
<path d="M21.2017 30.8571C29.7943 30.8571 37.1572 33.1386 40.3128 36.3534C41.3646 34.0571 41.9424 31.509 41.9424 28.8423C41.9424 18.1905 32.6535 9.31641 21.2017 9.31641C9.74983 9.31641 0.460938 18.2053 0.460938 28.8571C0.460938 31.5238 1.05353 34.072 2.09057 36.3534C5.24612 33.1238 12.6091 30.8571 21.1869 30.8571H21.2017Z" fill="#0093D5"/>
<path d="M21.1991 30.8719C29.7768 30.8719 37.1102 33.1238 40.2657 36.3238C41.3176 34.0423 41.8954 31.5238 41.8954 28.8867C41.8954 18.3238 32.6361 9.49414 21.2139 9.49414C9.79165 9.49414 0.517578 18.3386 0.517578 28.8867C0.517578 31.5238 1.11017 34.0423 2.14721 36.3238C5.28795 33.1238 12.6361 30.8719 21.1991 30.8719Z" fill="#0095D7"/>
<path d="M21.1867 30.9035C29.7348 30.9035 37.0533 33.1405 40.1941 36.3109C41.2459 34.059 41.8237 31.5553 41.8237 28.9331C41.8237 18.459 32.5793 9.67383 21.1867 9.67383C9.79408 9.67383 0.564453 18.459 0.564453 28.9331C0.564453 31.5553 1.14223 34.059 2.19408 36.3109C5.33482 33.1405 12.6533 30.9035 21.1867 30.9035Z" fill="#0097D8"/>
<path d="M21.186 30.9151C29.7193 30.9151 37.0082 33.1374 40.149 36.2781C41.2008 34.0411 41.7638 31.5522 41.7638 28.9744C41.7638 18.604 32.549 9.86328 21.186 9.86328C9.82305 9.86328 0.623047 18.5892 0.623047 28.9596C0.623047 31.5522 1.20082 34.0262 2.25268 36.2633C5.3786 33.1225 12.6823 30.9003 21.2008 30.9003L21.186 30.9151Z" fill="#0099D9"/>
<path d="M21.1845 30.9478C29.6882 30.9478 36.9771 33.1404 40.0882 36.2515C41.1253 34.0441 41.703 31.57 41.703 29.0071C41.703 18.7256 32.5179 10.0293 21.1845 10.0293C9.8512 10.0293 0.666016 18.7256 0.666016 29.0071C0.666016 31.57 1.24379 34.0441 2.28083 36.2515C5.40676 33.1404 12.6956 30.9478 21.1697 30.9478H21.1845Z" fill="#009BDA"/>
<path d="M21.1858 30.9618C29.6747 30.9618 36.934 33.1396 40.0451 36.221C41.0821 34.0284 41.6599 31.584 41.6599 29.0359C41.6599 18.8433 32.4895 10.1914 21.1858 10.1914C9.88212 10.1914 0.726562 18.8581 0.726562 29.0507C0.726562 31.5988 1.30434 34.0433 2.34138 36.2358C5.45249 33.1544 12.7266 30.9766 21.1858 30.9766V30.9618Z" fill="#009DDC"/>
<path d="M21.1695 30.991C29.6288 30.991 36.8732 33.154 39.9843 36.2058C41.0214 34.0281 41.5843 31.6133 41.5843 29.0947C41.5843 18.991 32.4436 10.3984 21.1695 10.3984C9.89546 10.3984 0.769531 18.991 0.769531 29.0799C0.769531 31.5984 1.34731 34.0281 2.38435 36.191C5.49546 33.1392 12.7399 30.9762 21.1843 30.9762L21.1695 30.991Z" fill="#009FDD"/>
<path d="M21.1708 31.005C29.6153 31.005 36.8301 33.1383 39.9264 36.1754C40.9634 34.0272 41.5264 31.6272 41.5264 29.1235C41.5264 19.1235 32.4153 10.5605 21.156 10.5605C9.89674 10.5605 0.830078 19.1235 0.830078 29.1235C0.830078 31.6272 1.40786 34.0272 2.43008 36.1754C5.52637 33.1531 12.756 31.005 21.1708 31.005Z" fill="#00A1DE"/>
<path d="M21.1693 31.0338C29.5842 31.0338 36.7842 33.1523 39.8805 36.1449C40.9175 34.0115 41.4805 31.6412 41.4805 29.1523C41.4805 19.2412 32.3842 10.7227 21.1693 10.7227C9.95453 10.7227 0.873047 19.256 0.873047 29.1671C0.873047 31.6412 1.45082 34.0264 2.47305 36.1597C5.55453 33.1523 12.7693 31.0486 21.1693 31.0486V31.0338Z" fill="#00A3DF"/>
<path d="M21.1726 31.0513C29.5726 31.0513 36.743 33.1402 39.8244 36.118C40.8615 33.9994 41.4244 31.6439 41.4244 29.1994C41.4244 19.3772 32.3578 10.918 21.1726 10.918C9.9874 10.918 0.935547 19.392 0.935547 29.1994C0.935547 31.6587 1.51332 34.0143 2.53555 36.118C5.61703 33.1402 12.8022 31.0513 21.1726 31.0513Z" fill="#00A5E1"/>
<path d="M21.1711 31.0789C29.5415 31.0789 36.7119 33.153 39.7785 36.1012C40.8156 34.0123 41.3785 31.6715 41.3785 29.2419C41.3785 19.5086 32.3415 11.0938 21.1711 11.0938C10.0007 11.0938 0.978516 19.5086 0.978516 29.2419C0.978516 31.6715 1.54148 34.0123 2.57852 36.1012C5.66 33.153 12.8156 31.0789 21.1711 31.0789Z" fill="#00A7E2"/>
<path d="M21.1685 31.0957C29.5092 31.0957 36.6648 33.1549 39.7314 36.0734C40.7537 33.9994 41.3166 31.6883 41.3166 29.2883C41.3166 19.6586 32.2944 11.2734 21.1685 11.2734C10.0426 11.2734 1.03516 19.6438 1.03516 29.2734C1.03516 31.6883 1.59812 33.9994 2.62034 36.0586C5.68701 33.1401 12.8426 31.0808 21.1685 31.0808V31.0957Z" fill="#00A9E3"/>
<path d="M21.1709 31.1233C29.4968 31.1233 36.6228 33.1529 39.6746 36.0418C40.6968 33.9826 41.2598 31.7011 41.2598 29.3159C41.2598 19.7751 32.2672 11.4492 21.1709 11.4492C10.0746 11.4492 1.08203 19.7751 1.08203 29.3159C1.08203 31.7011 1.64499 33.9974 2.66722 36.0418C5.71907 33.1529 12.8598 31.1233 21.1561 31.1233H21.1709Z" fill="#00ABE5"/>
<path d="M21.1546 31.1373C29.4509 31.1373 36.562 33.1521 39.6139 36.0113C40.6361 33.9817 41.1991 31.715 41.1991 29.3447C41.1991 19.8928 32.2361 11.6113 21.1546 11.6113C10.0731 11.6113 1.125 19.9076 1.125 29.3595C1.125 31.7298 1.68796 33.9965 2.71019 36.0261C5.76204 33.1669 12.8731 31.1521 21.1546 31.1521V31.1373Z" fill="#00ADE6"/>
<path d="M21.1559 31.1677C29.4374 31.1677 36.5189 33.1677 39.5559 35.9973C40.5781 33.9825 41.1263 31.7454 41.1263 29.4047C41.1263 20.0417 32.1781 11.8047 21.1411 11.8047C10.1041 11.8047 1.18555 20.0417 1.18555 29.3899C1.18555 31.7306 1.74851 33.9825 2.77073 35.9825C5.80777 33.1528 12.9041 31.1528 21.1559 31.1528V31.1677Z" fill="#00AFE7"/>
<path d="M21.1564 31.1824C29.4082 31.1824 36.4897 33.1528 39.512 35.9676C40.5342 33.9676 41.0823 31.7454 41.0823 29.4343C41.0823 20.175 32.1638 11.9824 21.1564 11.9824C10.149 11.9824 1.23047 20.175 1.23047 29.4343C1.23047 31.7602 1.79343 33.9824 2.80084 35.9676C5.83788 33.1676 12.9045 31.1824 21.1416 31.1824H21.1564Z" fill="#00B2E9"/>
<path d="M21.1538 31.2132C29.3908 31.2132 36.4427 33.1687 39.4649 35.9391C40.4871 33.9687 41.0353 31.7613 41.0353 29.465C41.0353 20.2946 32.1316 12.1465 21.1538 12.1465C10.176 12.1465 1.28711 20.3094 1.28711 29.4798C1.28711 31.7761 1.85007 33.9835 2.85748 35.9539C5.8797 33.1687 12.9316 31.228 21.1538 31.228V31.2132Z" fill="#00B4EA"/>
<path d="M21.1562 31.2279C29.3636 31.2279 36.4007 33.1687 39.4081 35.9094C40.4155 33.9538 40.9784 31.7761 40.9784 29.5094C40.9784 20.4279 32.1044 12.3242 21.1562 12.3242C10.2081 12.3242 1.33398 20.4427 1.33398 29.5094C1.33398 31.7909 1.89695 33.9687 2.90435 35.9094C5.92658 33.1538 12.9488 31.2279 21.1414 31.2279H21.1562Z" fill="#00B6EB"/>
<path d="M21.1407 31.2583C29.3333 31.2583 36.3407 33.1694 39.3481 35.8954C40.3555 33.9546 40.9037 31.8065 40.9037 29.5546C40.9037 20.562 32.0592 12.5176 21.1407 12.5176C10.2222 12.5176 1.39258 20.562 1.39258 29.5546C1.39258 31.8065 1.95554 33.9694 2.96295 35.8954C5.97036 33.1694 12.9926 31.2583 21.1555 31.2583H21.1407Z" fill="#00B8ED"/>
<path d="M21.1412 31.2711C29.3042 31.2711 36.2968 33.1674 39.2894 35.8637C40.2968 33.9526 40.8449 31.8193 40.8449 29.5971C40.8449 20.7082 32.0153 12.6934 21.1264 12.6934C10.2375 12.6934 1.4375 20.6934 1.4375 29.5822C1.4375 31.8045 2.00046 33.9526 2.99306 35.8637C5.98565 33.1674 12.9931 31.2711 21.1412 31.2711Z" fill="#01BBEE"/>
<path d="M21.1405 31.3038C29.2887 31.3038 36.2665 33.1705 39.2442 35.8372C40.2516 33.9409 40.7998 31.8372 40.7998 29.6297C40.7998 20.8297 31.9998 12.8594 21.1405 12.8594C10.2813 12.8594 1.49609 20.8297 1.49609 29.6297C1.49609 31.8372 2.04424 33.9557 3.05165 35.8372C6.04424 33.1705 13.022 31.3038 21.1405 31.3038Z" fill="#11BDF0"/>
<path d="M21.1391 31.3166C29.2576 31.3166 36.2205 33.1685 39.1983 35.8055C40.2057 33.924 40.7539 31.8352 40.7539 29.6574C40.7539 20.9463 31.9835 13.0352 21.1539 13.0352C10.3242 13.0352 1.53906 20.9611 1.53906 29.6722C1.53906 31.85 2.08721 33.9537 3.09462 35.8203C6.0724 33.1833 13.0354 31.3315 21.1391 31.3315V31.3166Z" fill="#1AC0F1"/>
<path d="M21.1404 31.347C29.2441 31.347 36.1774 33.1841 39.1404 35.7915C40.1478 33.9396 40.6959 31.8656 40.6959 29.7174C40.6959 21.0952 31.9403 13.2285 21.1404 13.2285C10.3404 13.2285 1.59961 21.0952 1.59961 29.7026C1.59961 31.8656 2.14776 33.9396 3.14035 35.7915C6.11813 33.1841 13.0515 31.347 21.1255 31.347H21.1404Z" fill="#1FC4F4"/>
<path d="M21.14 31.3918C29.2289 31.3918 36.1622 33.214 39.1252 35.8066C40.1326 33.9695 40.6659 31.9103 40.6659 29.7621C40.6659 21.1992 31.9252 13.377 21.14 13.377C10.3548 13.377 1.62891 21.214 1.62891 29.777C1.62891 31.9251 2.17705 33.9844 3.16965 35.8214C6.13261 33.2288 13.0659 31.4066 21.14 31.4066V31.3918Z" fill="#32C5F4"/>
<path d="M21.1389 31.449C29.2129 31.449 36.1315 33.2564 39.0944 35.8342C40.1018 33.9972 40.6352 31.9675 40.6352 29.8342C40.6352 21.3305 31.9092 13.5527 21.1389 13.5527C10.3685 13.5527 1.64258 21.3305 1.64258 29.8342C1.64258 31.9675 2.19073 34.012 3.18332 35.8342C6.14628 33.2564 13.0648 31.449 21.1241 31.449H21.1389Z" fill="#3FC7F4"/>
<path d="M21.1424 31.4926C29.2017 31.4926 36.1202 33.2852 39.0684 35.8482C40.061 34.026 40.6091 32.0111 40.6091 29.8926C40.6091 21.4482 31.898 13.7148 21.1424 13.7148C10.3869 13.7148 1.67578 21.4482 1.67578 29.8926C1.67578 32.0111 2.22393 34.0408 3.21652 35.863C6.17948 33.3 13.0832 31.5074 21.1276 31.5074L21.1424 31.4926Z" fill="#4AC8F5"/>
<path d="M21.1421 31.5541C29.2014 31.5541 36.1051 33.3467 39.0532 35.88C40.0458 34.0726 40.594 32.0578 40.594 29.9541C40.594 21.5541 31.8977 13.8652 21.1569 13.8652C10.4162 13.8652 1.70508 21.5689 1.70508 29.9541C1.70508 32.0578 2.25323 34.0726 3.24582 35.88C6.20878 33.3319 13.1125 31.5541 21.1421 31.5541Z" fill="#54CAF5"/>
<path d="M21.1398 31.5977C29.1843 31.5977 36.0732 33.3755 39.0213 35.894C40.0139 34.1014 40.562 32.1014 40.562 30.0125C40.562 21.6718 31.8658 14.0273 21.1398 14.0273C10.4139 14.0273 1.73242 21.6866 1.73242 30.0125C1.73242 32.1014 2.28057 34.1014 3.27316 35.894C6.22131 33.3755 13.125 31.5977 21.1398 31.5977Z" fill="#5CCCF5"/>
<path d="M21.1406 31.6569C29.1703 31.6569 36.0592 33.4199 38.9925 35.9236C39.9851 34.1458 40.5332 32.1606 40.5332 30.0866C40.5332 21.8051 31.8518 14.2051 21.1406 14.2051C10.4295 14.2051 1.74805 21.8051 1.74805 30.0717C1.74805 32.1458 2.2962 34.131 3.28879 35.9236C6.23694 33.4199 13.1258 31.6569 21.1258 31.6569H21.1406Z" fill="#64CDF6"/>
<path d="M21.1403 31.7036C29.1551 31.7036 36.0292 33.4518 38.9773 35.9407C39.9699 34.1629 40.5181 32.2073 40.5181 30.1332C40.5181 21.911 31.8514 14.3555 21.1551 14.3555C10.4588 14.3555 1.77734 21.911 1.77734 30.1332C1.77734 32.1925 2.32549 34.1777 3.30327 35.9407C6.25142 33.4518 13.1255 31.7036 21.1255 31.7036H21.1403Z" fill="#6CCFF6"/>
<path d="M21.1419 31.7472C29.1567 31.7472 36.016 33.4805 38.9493 35.9546C39.9419 34.1917 40.4753 32.2361 40.4753 30.1917C40.4753 22.0139 31.8234 14.5176 21.1419 14.5176C10.4604 14.5176 1.80859 22.0287 1.80859 30.2065C1.80859 32.2509 2.35674 34.2213 3.33452 35.9694C6.26785 33.4954 13.1419 31.762 21.1271 31.7472H21.1419Z" fill="#73D1F6"/>
<path d="M21.1416 31.8045C29.1416 31.8045 36.0009 33.5378 38.9194 35.9822C39.912 34.2341 40.4453 32.2934 40.4453 30.2637C40.4453 22.1452 31.8083 14.6934 21.1268 14.6934C10.4453 14.6934 1.83789 22.1452 1.83789 30.2637C1.83789 32.3082 2.38604 34.2489 3.36382 35.9971C6.29715 33.5378 13.1564 31.8193 21.1416 31.8045Z" fill="#7AD2F7"/>
<path d="M21.1413 31.8484C29.1264 31.8484 35.9709 33.5669 38.9042 35.9965C39.8968 34.2632 40.4301 32.3373 40.4301 30.3077C40.4301 22.2484 31.7931 14.8262 21.1413 14.8262C10.4894 14.8262 1.86719 22.2632 1.86719 30.3225C1.86719 32.3521 2.41534 34.278 3.39311 36.0114C6.32645 33.5669 13.1709 31.8484 21.1413 31.8484Z" fill="#81D4F7"/>
<path d="M21.1401 31.9084C29.1105 31.9084 35.9549 33.6121 38.8735 36.0418C39.8512 34.3232 40.3994 32.4121 40.3994 30.3973C40.3994 22.3973 31.7772 15.0195 21.1401 15.0195C10.5031 15.0195 1.88086 22.3825 1.88086 30.3825C1.88086 32.3973 2.42901 34.3084 3.40679 36.0269C6.3253 33.5973 13.1697 31.8936 21.1253 31.8936L21.1401 31.9084Z" fill="#88D6F8"/>
<path d="M21.1398 31.952C29.1102 31.952 35.9398 33.6409 38.8435 36.0557C39.8213 34.3372 40.3694 32.4409 40.3694 30.4557C40.3694 22.5002 31.762 15.1816 21.1398 15.1816C10.5176 15.1816 1.91016 22.5002 1.91016 30.4409C1.91016 32.4409 2.4583 34.3372 3.43608 36.0557C6.3546 33.6557 13.1842 31.952 21.1398 31.952Z" fill="#8ED8F8"/>
<path d="M21.1414 32.0132C29.097 32.0132 35.9118 33.7021 38.8303 36.0873C39.8081 34.3836 40.3562 32.5021 40.3562 30.5317C40.3562 22.6354 31.7636 15.3613 21.1562 15.3613C10.5488 15.3613 1.94141 22.6206 1.94141 30.5021C1.94141 32.4873 2.48955 34.3687 3.46733 36.0724C6.38585 33.6873 13.2007 31.9984 21.1414 31.9984V32.0132Z" fill="#94DAF8"/>
<path d="M21.1411 32.0579C29.0818 32.0579 35.8966 33.732 38.8003 36.1024C39.7781 34.4135 40.3263 32.5468 40.3263 30.5764C40.3263 22.7394 31.7337 15.5098 21.1411 15.5098C10.5485 15.5098 1.9707 22.7394 1.9707 30.5764C1.9707 32.5468 2.50404 34.4135 3.48181 36.1024C6.40033 33.732 13.2151 32.0579 21.1263 32.0579H21.1411Z" fill="#9BDCF9"/>
<path d="M21.1407 32.1015C29.0815 32.1015 35.8815 33.7608 38.7704 36.1163C39.7481 34.4422 40.2815 32.5756 40.2815 30.6348C40.2815 22.8571 31.7037 15.6719 21.1259 15.6719C10.5481 15.6719 2 22.8571 2 30.6348C2 32.5904 2.53333 34.4422 3.51111 36.1311C6.41481 33.7756 13.2296 32.1163 21.1407 32.1163V32.1015Z" fill="#A1DDF9"/>
<path d="M21.1396 32.1619C29.0655 32.1619 35.8507 33.8063 38.7544 36.147C39.7322 34.4878 40.2655 32.6359 40.2655 30.71C40.2655 22.9767 31.7026 15.8359 21.1396 15.8359C10.5766 15.8359 2.01367 22.9767 2.01367 30.6952C2.01367 32.6359 2.54701 34.4878 3.52478 36.147C6.42849 33.8063 13.2285 32.1619 21.1248 32.1619H21.1396Z" fill="#A7DFF9"/>
<path d="M21.1412 32.2066C29.0523 32.2066 35.8375 33.8362 38.7264 36.1622C39.7042 34.5029 40.2375 32.6807 40.2375 30.7547C40.2375 23.0807 31.6894 15.9844 21.1412 15.9844C10.5931 15.9844 2.04492 23.0955 2.04492 30.7547C2.04492 32.6807 2.57826 34.5177 3.55603 36.1622C6.45974 33.8362 13.2449 32.2066 21.1412 32.2066Z" fill="#ADE1FA"/>
<path d="M21.1409 32.2639C29.0372 32.2639 35.8224 33.8935 38.7113 36.1898C39.689 34.5453 40.2224 32.7379 40.2224 30.8268C40.2224 23.212 31.6742 16.1602 21.1409 16.1602C10.6076 16.1602 2.07422 23.212 2.07422 30.812C2.07422 32.7231 2.60755 34.5453 3.58533 36.1898C6.47422 33.8787 13.2594 32.2639 21.1409 32.2639Z" fill="#B3E3FA"/>
<path d="M21.1406 32.3114C29.0368 32.3114 35.7924 33.9262 38.6813 36.2077C39.6591 34.578 40.1924 32.7706 40.1924 30.8891C40.1924 23.3336 31.6591 16.3262 21.1406 16.3262C10.622 16.3262 2.10352 23.3336 2.10352 30.8743C2.10352 32.7706 2.63685 34.578 3.61463 36.2077C6.50352 33.9262 13.2739 32.3114 21.1406 32.3114Z" fill="#B8E5FA"/>
<path d="M21.1394 32.3678C29.0209 32.3678 35.7764 33.9678 38.6505 36.2345C39.6135 34.6197 40.1616 32.8271 40.1616 30.9456C40.1616 23.4345 31.6431 16.4863 21.1394 16.4863C10.6357 16.4863 2.11719 23.4493 2.11719 30.9456C2.11719 32.8271 2.65052 34.6197 3.61348 36.2345C6.50237 33.9678 13.2579 32.3678 21.1246 32.3678H21.1394Z" fill="#BEE7FB"/>
<path d="M21.1391 32.4114C29.0057 32.4114 35.7613 33.9966 38.6354 36.2484C39.5983 34.6484 40.1465 32.8707 40.1465 31.004C40.1465 23.5521 31.6428 16.6484 21.1539 16.6484C10.665 16.6484 2.14648 23.567 2.14648 31.004C2.14648 32.8707 2.67982 34.6484 3.64278 36.2633C6.53167 34.0114 13.2724 32.4262 21.1243 32.4262L21.1391 32.4114Z" fill="#C4E9FB"/>
<path d="M21.1427 32.4737C28.9945 32.4737 35.7352 34.0441 38.6093 36.2811C39.5723 34.6811 40.1056 32.933 40.1056 31.0811C40.1056 23.6885 31.6167 16.8145 21.1427 16.8145C10.6686 16.8145 2.17969 23.6737 2.17969 31.0663C2.17969 32.933 2.71302 34.6811 3.67598 36.2811C6.55006 34.0441 13.2908 32.4737 21.1278 32.4737H21.1427Z" fill="#CAEBFC"/>
<path d="M21.1404 32.5165C28.9922 32.5165 35.7181 34.0869 38.5774 36.2943C39.5404 34.7091 40.0737 32.9609 40.0737 31.1239C40.0737 23.7906 31.5848 16.9609 21.1255 16.9609C10.6663 16.9609 2.20703 23.7906 2.20703 31.1239C2.20703 32.9758 2.74036 34.7091 3.70333 36.2943C6.5774 34.0721 13.3033 32.5165 21.1404 32.5165Z" fill="#CFEDFC"/>
<path d="M21.14 32.5601C28.9771 32.5601 35.6882 34.1156 38.5623 36.3082C39.5252 34.7379 40.0586 33.0045 40.0586 31.1823C40.0586 23.8934 31.5845 17.123 21.14 17.123C10.6956 17.123 2.23633 23.9082 2.23633 31.1823C2.23633 33.0193 2.76966 34.7379 3.73262 36.323C6.6067 34.1156 13.3326 32.5749 21.14 32.5749V32.5601Z" fill="#D5EFFC"/>
<path d="M21.1408 32.6213C28.9631 32.6213 35.6742 34.162 38.5334 36.3398C39.4964 34.7842 40.0297 33.0657 40.0297 31.2583C40.0297 24.0287 31.5705 17.3027 21.1408 17.3027C10.7112 17.3027 2.25195 24.0287 2.25195 31.2435C2.25195 33.0657 2.78529 34.7842 3.74825 36.3398C6.60751 34.1472 13.3334 32.6213 21.126 32.6213H21.1408Z" fill="#DAF1FD"/>
<path d="M21.1386 32.666C28.946 32.666 35.6571 34.1919 38.5015 36.3549C39.4645 34.8141 39.9978 33.1104 39.9978 31.303C39.9978 24.1327 31.5534 17.4512 21.1386 17.4512C10.7237 17.4512 2.2793 24.1475 2.2793 31.3178C2.2793 33.1252 2.81263 34.8289 3.76078 36.3697C6.62004 34.2067 13.3311 32.6808 21.1237 32.666H21.1386Z" fill="#E0F3FD"/>
<path d="M21.1421 32.7232C28.9495 32.7232 35.631 34.2344 38.4903 36.3825C39.4384 34.8418 39.9866 33.1529 39.9866 31.3751C39.9866 24.264 31.5421 17.627 21.1569 17.627C10.7718 17.627 2.3125 24.264 2.3125 31.3751C2.3125 33.1677 2.84583 34.8566 3.79398 36.3973C6.65324 34.2492 13.3495 32.7232 21.1273 32.7232H21.1421Z" fill="#E6F5FD"/>
<path d="M21.1418 32.768C28.9344 32.768 35.6159 34.2791 38.4603 36.3976C39.4085 34.8717 39.9566 33.1976 39.9566 31.4346C39.9566 24.3828 31.527 17.7754 21.1418 17.7754C10.7566 17.7754 2.3418 24.3828 2.3418 31.4346C2.3418 33.2124 2.87513 34.8865 3.82328 36.4124C6.66772 34.2791 13.364 32.768 21.1418 32.768Z" fill="#EBF7FE"/>
<path d="M21.1395 32.8292C28.9173 32.8292 35.5988 34.3254 38.4284 36.444C39.3765 34.9329 39.9099 33.2736 39.9099 31.5106C39.9099 24.5032 31.4951 17.9551 21.1247 17.9551C10.7543 17.9551 2.36914 24.5032 2.36914 31.4958C2.36914 33.2588 2.90247 34.918 3.85062 36.4292C6.69507 34.3106 13.3765 32.8143 21.1395 32.8143V32.8292Z" fill="#F1FAFE"/>
<path d="M21.1403 32.8727C28.9033 32.8727 35.57 34.3542 38.4144 36.4579C39.3625 34.9616 39.8959 33.3172 39.8959 31.569C39.8959 24.6209 31.4959 18.1172 21.1403 18.1172C10.7848 18.1172 2.38477 24.6209 2.38477 31.5542C2.38477 33.3024 2.9181 34.9468 3.86625 36.4431C6.71069 34.3394 13.3774 32.8579 21.1255 32.8579L21.1403 32.8727Z" fill="#F7FCFE"/>
<path d="M21.1419 32.9163C28.9049 32.9163 35.5568 34.383 38.3864 36.4719C39.3345 34.9904 39.8679 33.346 39.8679 31.6274C39.8679 24.7386 31.4827 18.2793 21.1419 18.2793C10.8012 18.2793 2.41602 24.7386 2.41602 31.6126C2.41602 33.346 2.94935 34.9756 3.8975 36.4719C6.74194 34.383 13.3938 32.9163 21.1419 32.9163Z" fill="white"/>
</g>
<path d="M21.0354 26.0449C14.2502 26.0449 7.95391 27.2005 2.75391 29.156C5.87983 36.1338 12.8724 41.0079 21.0354 41.0079C29.1984 41.0079 36.1613 36.1338 39.3021 29.156C34.1021 27.2005 27.8058 26.0449 21.0354 26.0449Z" fill="#0083CA"/>
<path d="M378.635 8.59375C372.058 8.59375 367.924 12.6975 366.354 20.7863C365.465 25.4234 365.865 28.7123 367.613 30.816C369.021 32.5197 371.258 33.3789 374.25 33.3789C380.828 33.3789 384.961 29.2752 386.517 21.1863C387.421 16.5641 386.991 13.2752 385.243 11.1567C383.835 9.45301 381.598 8.59375 378.621 8.59375H378.635ZM374.769 28.6234C373.924 28.6234 373.332 28.3863 372.932 27.9123C372.339 27.1863 371.791 25.4382 372.621 21.1863C373.643 15.9123 375.435 13.3493 378.117 13.3493C378.946 13.3493 379.539 13.5863 379.939 14.0604C380.546 14.7863 381.095 16.5493 380.28 20.7863C379.258 26.0604 377.465 28.6234 374.769 28.6234Z" fill="white"/>
<path d="M403.378 8.94727L400.266 25.0658C399.644 28.2658 397.822 28.6362 396.489 28.6362C395.585 28.6362 394.963 28.4436 394.637 28.0436C394.133 27.4362 394.222 26.3102 394.385 25.4658L397.57 8.94727H391.629L388.518 25.0658C388.044 27.5399 388.415 29.5399 389.615 31.0065C390.903 32.5621 393.096 33.3917 395.97 33.3917C401.526 33.3917 405.141 30.5769 406.118 25.4658L409.303 8.94727H403.363H403.378Z" fill="white"/>
<path d="M337.524 8.38591C331.065 8.38591 326.117 12.4748 324.546 20.5489C323.731 24.8007 324.25 28.2081 326.072 30.4007C327.583 32.2378 330.798 33.2748 333.82 33.1563C337.583 33.0081 340.679 31.7341 341.82 30.9785L342.191 30.7415L344.591 18.3563H334.457L333.613 22.6378H338.724L337.687 28.0007C336.591 28.3118 335.583 28.5637 334.309 28.5637C333.272 28.5637 331.85 28.2674 331.168 27.5859C330.146 26.5785 330.117 24.2526 330.754 20.9489C331.805 15.5266 334.117 13.3933 336.991 13.1118C338.042 13.0081 338.591 13.2007 338.991 13.5563C339.346 13.8822 339.583 14.3859 339.45 15.3785L339.213 16.6081H344.65L344.813 15.7637C345.213 13.6896 344.872 11.9118 343.805 10.6378C342.561 9.14146 340.442 8.37109 337.509 8.37109L337.524 8.38591Z" fill="white"/>
<path d="M360.001 23.4963C362.92 21.8519 364.875 18.6371 364.875 14.4889C364.875 8.34077 357.557 8.94818 357.557 8.94818H349.972L344.92 32.9185H350.579L352.238 24.726H354.446C355.127 24.8445 356.061 25.2593 356.194 26.5926C356.416 28.7556 356.742 33.0074 356.742 33.0074H362.431C362.431 33.0074 361.927 27.1556 361.779 26.2815C361.631 25.4074 361.35 24.163 360.031 23.4963M354.683 13.3926C356.224 13.3926 359.927 12.163 359.29 16.5334C358.653 20.9185 353.35 20.3408 353.35 20.3408L354.683 13.3926Z" fill="white"/>
<path d="M423.437 23.5546C426.281 21.7472 428.326 18.6805 428.326 14.5027C428.326 8.32496 420.978 8.94718 420.978 8.94718H413.363L408.281 33.0213H413.955L415.615 24.799H417.837C417.837 24.799 421.422 24.8435 423.437 23.5694V23.5546ZM418.103 13.4064C419.659 13.4064 423.363 12.162 422.726 16.562C422.089 20.962 416.77 20.3842 416.77 20.3842L418.103 13.4064Z" fill="white"/>
<path d="M166.489 18.1176L167.303 13.8954H176.163L177.111 8.94727H162.311L157.674 33.0362H163.615L165.526 23.0658H173.896L174.859 18.1176H166.489Z" fill="white"/>
<path d="M202.739 8.94727L200.176 22.2065L195.658 8.94727H189.362L184.725 33.0362H190.339L193.051 18.9769L197.836 33.0362H203.702L208.354 8.94727H202.739Z" fill="white"/>
<path d="M244.223 22.2065L239.704 8.94727H233.408L228.756 33.0362H234.385L237.097 18.9769L241.867 33.0362H247.748L252.385 8.94727H246.771L244.223 22.2065Z" fill="white"/>
<path d="M262.799 28.3419C261.496 28.3419 260.592 28.0012 259.999 27.29C259.036 26.1197 258.859 23.7789 259.481 20.5197C260.103 17.2456 261.525 13.3493 264.636 13.3493C265.14 13.3493 265.792 13.4234 266.073 13.7641C266.34 14.09 266.385 14.7863 266.177 15.8234L265.94 17.0826H272.296L272.459 16.2234C272.859 14.1789 272.459 12.3123 271.347 10.9641C270.459 9.88264 268.666 8.59375 265.14 8.59375C258.888 8.59375 254.622 12.89 253.11 20.6975C252.251 25.1123 252.74 28.4752 254.562 30.6826C256.044 32.4752 258.325 33.3938 261.347 33.3938C264.147 33.3938 266.77 32.5493 268.073 32.0456L268.622 31.8382L269.362 27.9863L269.688 25.8975L267.762 26.9049C267.066 27.2752 264.947 28.3715 262.799 28.3715V28.3419Z" fill="white"/>
<path d="M275.57 8.94727L270.918 33.0362H276.859L281.511 8.94727H275.57Z" fill="white"/>
<path d="M312.444 8.94727H306.503L301.852 33.0362H316.592L317.54 28.088H308.755L312.444 8.94727Z" fill="white"/>
<path d="M218.4 8.93164L204.682 33.0205H211.156L213.704 28.4279L221.156 28.4724L221.689 33.0205H227.689L224.03 8.93164H218.4ZM216.267 23.8353L219.896 16.739L220.756 23.8502H216.267V23.8353Z" fill="white"/>
<path d="M291.467 8.93164L277.764 33.0205H284.223L286.756 28.4279L294.208 28.4724L294.741 33.0205H300.741L297.082 8.93164H291.467ZM289.334 23.8353L292.949 16.739L293.823 23.8502H289.334V23.8353Z" fill="white"/>
<path d="M175.379 33.0205L181.764 32.9909L186.372 8.93164L180.001 8.94646L175.379 33.0205Z" fill="white"/>
<path d="M74.3989 8.8457L69.1693 22.4753L67.036 8.8457H62.4582L55.1693 22.3864L55.1545 8.8457H49.6582V32.9346H55.2878L62.9767 18.7568L65.2878 32.9346H70.8582L80.1323 8.8457H74.3989Z" fill="white"/>
<path d="M90.9474 8.49023C84.3696 8.49023 80.2363 12.5939 78.6807 20.6828C77.777 25.3199 78.1919 28.6088 79.94 30.7125C81.3474 32.4162 83.5844 33.2754 86.577 33.2754C93.1548 33.2754 97.2882 29.1717 98.8585 21.0828C99.7474 16.4606 99.3326 13.1717 97.5845 11.0532C96.177 9.34949 93.94 8.49023 90.9622 8.49023H90.9474ZM87.0807 28.5199C86.2363 28.5199 85.6437 28.2828 85.2437 27.8088C84.6511 27.0828 84.103 25.3347 84.9326 21.0828C85.9548 15.8088 87.7474 13.2458 90.4437 13.2458C91.2733 13.2458 91.8659 13.4828 92.2659 13.9569C92.8585 14.6828 93.4215 16.4458 92.5919 20.6828C91.5696 25.9569 89.777 28.5199 87.0807 28.5199Z" fill="white"/>
<path d="M112.8 8.49023C106.207 8.49023 102.089 12.5939 100.518 20.6828C99.6295 25.3199 100.044 28.6088 101.778 30.7125C103.185 32.4162 105.422 33.2754 108.415 33.2754C114.992 33.2754 119.126 29.1717 120.696 21.0828C121.585 16.4606 121.17 13.1717 119.422 11.0532C118.015 9.34949 115.792 8.49023 112.8 8.49023ZM108.933 28.5199C108.089 28.5199 107.496 28.2828 107.096 27.8088C106.504 27.0828 105.955 25.3347 106.785 21.0828C107.807 15.8088 109.6 13.2458 112.296 13.2458C113.126 13.2458 113.718 13.4828 114.118 13.9569C114.726 14.6828 115.274 16.4458 114.444 20.6828C113.422 25.9569 111.63 28.5199 108.933 28.5199Z" fill="white"/>
<path d="M145.302 8.8457L140.65 32.9346H147.021L151.673 8.8457H145.302Z" fill="white"/>
<path d="M136 23.3928C138.918 21.7336 140.859 18.5335 140.859 14.3854C140.859 8.23725 133.541 8.84466 133.541 8.84466H125.955L120.889 32.815H126.548L128.207 24.6224H130.415C131.096 24.741 132.029 25.1558 132.163 26.4891C132.37 28.6521 132.711 32.9039 132.711 32.9039H138.4C138.4 32.9039 137.896 27.0521 137.748 26.178C137.615 25.2891 137.333 24.0595 136 23.3928ZM130.681 13.2891C132.222 13.2891 135.926 12.0595 135.289 16.4298C134.652 20.815 129.348 20.2373 129.348 20.2373L130.681 13.2891Z" fill="white"/>
</g>
<defs>
<clipPath id="clip0_322_10854">
<rect width="428.326" height="42" fill="white"/>
</clipPath>
</defs>
</svg>
